<?xml version="1.0" encoding="UTF-8" standalone="no"?><svg xmlns="http://www.w3.org/2000/svg" xmlns:xlink="http://www.w3.org/1999/xlink" clip-rule="evenodd" stroke-miterlimit="10" viewBox="0 0 1920 1080"><desc>SVG generated by Keynote</desc><defs></defs><g transform="matrix(1.00, 0.00, -0.00, -1.00, 0.0, 1080.0)"><path d="M 0.0 1080.0 L 1920.0 1080.0 L 1920.0 0.0 L 0.0 0.0 Z M 0.0 1080.0 " fill="#E9E9E9"></path><text xml:space="preserve" font-family="Exo2.0-BoldItalic,Exo 2.0" font-style="italic" font-weight="bold" font-size="72.0" fill="#FF9B00" transform="matrix(1.00, 0.00, -0.00, -1.00, 432.3, 884.7)">C</text><text xml:space="preserve" font-family="Exo2.0-BoldItalic,Exo 2.0" font-style="italic" font-weight="bold" font-size="72.0" fill="#FF9B00" transform="matrix(1.00, 0.00, -0.00, -1.00, 473.5, 884.7)">O</text><text xml:space="preserve" font-family="Exo2.0-BoldItalic,Exo 2.0" font-style="italic" font-weight="bold" font-size="72.0" fill="#FF9B00" transform="matrix(1.00, 0.00, -0.00, -1.00, 522.5, 884.7)">M</text><text xml:space="preserve" font-family="Exo2.0-BoldItalic,Exo 2.0" font-style="italic" font-weight="bold" font-size="72.0" fill="#FF9B00" transform="matrix(1.00, 0.00, -0.00, -1.00, 587.9, 884.7)">P</text><text xml:space="preserve" font-family="Exo2.0-BoldItalic,Exo 2.0" font-style="italic" font-weight="bold" font-size="72.0" fill="#FF9B00" transform="matrix(1.00, 0.00, -0.00, -1.00, 631.8, 884.7)">O</text><text xml:space="preserve" font-family="Exo2.0-BoldItalic,Exo 2.0" font-style="italic" font-weight="bold" font-size="72.0" fill="#FF9B00" transform="matrix(1.00, 0.00, -0.00, -1.00, 680.7, 884.7)">N</text><text xml:space="preserve" font-family="Exo2.0-BoldItalic,Exo 2.0" font-style="italic" font-weight="bold" font-size="72.0" fill="#FF9B00" transform="matrix(1.00, 0.00, -0.00, -1.00, 732.4, 884.7)">E</text><text xml:space="preserve" font-family="Exo2.0-BoldItalic,Exo 2.0" font-style="italic" font-weight="bold" font-size="72.0" fill="#FF9B00" transform="matrix(1.00, 0.00, -0.00, -1.00, 773.6, 884.7)">N</text><text xml:space="preserve" font-family="Exo2.0-BoldItalic,Exo 2.0" font-style="italic" font-weight="bold" font-size="72.0" fill="#FF9B00" transform="matrix(1.00, 0.00, -0.00, -1.00, 825.2, 884.7)">T</text><text xml:space="preserve" font-family="Exo2.0-BoldItalic,Exo 2.0" font-style="italic" font-weight="bold" font-size="72.0" fill="#FF9B00" transform="matrix(1.00, 0.00, -0.00, -1.00, 867.9, 884.7)">S</text><text xml:space="preserve" font-family="Exo2.0-BoldItalic,Exo 2.0" font-style="italic" font-weight="bold" font-size="72.0" fill="#FF9B00" transform="matrix(1.00, 0.00, -0.00, -1.00, 909.6, 884.7)"> </text><text xml:space="preserve" font-family="Exo2.0-BoldItalic,Exo 2.0" font-style="italic" font-weight="bold" font-size="72.0" fill="#FF9B00" transform="matrix(1.00, 0.00, -0.00, -1.00, 923.7, 884.7)">A</text><text xml:space="preserve" font-family="Exo2.0-BoldItalic,Exo 2.0" font-style="italic" font-weight="bold" font-size="72.0" fill="#FF9B00" transform="matrix(1.00, 0.00, -0.00, -1.00, 970.3, 884.7)">R</text><text xml:space="preserve" font-family="Exo2.0-BoldItalic,Exo 2.0" font-style="italic" font-weight="bold" font-size="72.0" fill="#FF9B00" transform="matrix(1.00, 0.00, -0.00, -1.00, 1016.4, 884.7)">E</text><text xml:space="preserve" font-family="Exo2.0-BoldItalic,Exo 2.0" font-style="italic" font-weight="bold" font-size="72.0" fill="#FF9B00" transform="matrix(1.00, 0.00, -0.00, -1.00, 1057.6, 884.7)"> </text><text xml:space="preserve" font-family="Exo2.0-BoldItalic,Exo 2.0" font-style="italic" font-weight="bold" font-size="72.0" fill="#FF9B00" transform="matrix(1.00, 0.00, -0.00, -1.00, 1071.6, 884.7)">T</text><text xml:space="preserve" font-family="Exo2.0-BoldItalic,Exo 2.0" font-style="italic" font-weight="bold" font-size="72.0" fill="#FF9B00" transform="matrix(1.00, 0.00, -0.00, -1.00, 1114.3, 884.7)">H</text><text xml:space="preserve" font-family="Exo2.0-BoldItalic,Exo 2.0" font-style="italic" font-weight="bold" font-size="72.0" fill="#FF9B00" transform="matrix(1.00, 0.00, -0.00, -1.00, 1163.6, 884.7)">E</text><text xml:space="preserve" font-family="Exo2.0-BoldItalic,Exo 2.0" font-style="italic" font-weight="bold" font-size="72.0" fill="#FF9B00" transform="matrix(1.00, 0.00, -0.00, -1.00, 1204.8, 884.7)"> </text><text xml:space="preserve" font-family="Exo2.0-BoldItalic,Exo 2.0" font-style="italic" font-weight="bold" font-size="72.0" fill="#FF9B00" transform="matrix(1.00, 0.00, -0.00, -1.00, 1220.4, 884.7)">F</text><text xml:space="preserve" font-family="Exo2.0-BoldItalic,Exo 2.0" font-style="italic" font-weight="bold" font-size="72.0" fill="#FF9B00" transform="matrix(1.00, 0.00, -0.00, -1.00, 1260.1, 884.7)">U</text><text xml:space="preserve" font-family="Exo2.0-BoldItalic,Exo 2.0" font-style="italic" font-weight="bold" font-size="72.0" fill="#FF9B00" transform="matrix(1.00, 0.00, -0.00, -1.00, 1308.8, 884.7)">T</text><text xml:space="preserve" font-family="Exo2.0-BoldItalic,Exo 2.0" font-style="italic" font-weight="bold" font-size="72.0" fill="#FF9B00" transform="matrix(1.00, 0.00, -0.00, -1.00, 1351.6, 884.7)">U</text><text xml:space="preserve" font-family="Exo2.0-BoldItalic,Exo 2.0" font-style="italic" font-weight="bold" font-size="72.0" fill="#FF9B00" transform="matrix(1.00, 0.00, -0.00, -1.00, 1400.3, 884.7)">R</text><text xml:space="preserve" font-family="Exo2.0-BoldItalic,Exo 2.0" font-style="italic" font-weight="bold" font-size="72.0" fill="#FF9B00" transform="matrix(1.00, 0.00, -0.00, -1.00, 1446.5, 884.7)">E</text><text xml:space="preserve" font-family="Exo2.0-Black,Exo 2.0" font-weight="bold" font-size="90.0" fill="#1F96BC" transform="matrix(1.00, 0.00, -0.00, -1.00, 231.2, 334.2)">R</text><text xml:space="preserve" font-family="Exo2.0-Black,Exo 2.0" font-weight="bold" font-size="90.0" fill="#1F96BC" transform="matrix(1.00, 0.00, -0.00, -1.00, 292.0, 334.2)">E</text><text xml:space="preserve" font-family="Exo2.0-Black,Exo 2.0" font-weight="bold" font-size="90.0" fill="#1F96BC" transform="matrix(1.00, 0.00, -0.00, -1.00, 345.6, 334.2)">U</text><text xml:space="preserve" font-family="Exo2.0-Black,Exo 2.0" font-weight="bold" font-size="90.0" fill="#1F96BC" transform="matrix(1.00, 0.00, -0.00, -1.00, 409.1, 334.2)">S</text><text xml:space="preserve" font-family="Exo2.0-Black,Exo 2.0" font-weight="bold" font-size="90.0" fill="#1F96BC" transform="matrix(1.00, 0.00, -0.00, -1.00, 464.0, 334.2)">A</text><text xml:space="preserve" font-family="Exo2.0-Black,Exo 2.0" font-weight="bold" font-size="90.0" fill="#1F96BC" transform="matrix(1.00, 0.00, -0.00, -1.00, 525.5, 334.2)">B</text><text xml:space="preserve" font-family="Exo2.0-Black,Exo 2.0" font-weight="bold" font-size="90.0" fill="#1F96BC" transform="matrix(1.00, 0.00, -0.00, -1.00, 584.9, 334.2)">L</text><text xml:space="preserve" font-family="Exo2.0-Black,Exo 2.0" font-weight="bold" font-size="90.0" fill="#1F96BC" transform="matrix(1.00, 0.00, -0.00, -1.00, 635.0, 334.2)">E</text><text xml:space="preserve" font-family="Exo2.0-Black,Exo 2.0" font-weight="bold" font-size="90.0" fill="#1F96BC" transform="matrix(1.00, 0.00, -0.00, -1.00, 688.6, 334.2)"> </text><text xml:space="preserve" font-family="Exo2.0-Regular,Exo 2.0" font-size="50.0" fill="#5F5F5F" transform="matrix(1.00, 0.00, -0.00, -1.00, 242.2, 268.1)">B</text><text xml:space="preserve" font-family="Exo2.0-Regular,Exo 2.0" font-size="50.0" fill="#5F5F5F" transform="matrix(1.00, 0.00, -0.00, -1.00, 273.2, 268.1)">U</text><text xml:space="preserve" font-family="Exo2.0-Regular,Exo 2.0" font-size="50.0" fill="#5F5F5F" transform="matrix(1.00, 0.00, -0.00, -1.00, 306.5, 268.1)">I</text><text xml:space="preserve" font-family="Exo2.0-Regular,Exo 2.0" font-size="50.0" fill="#5F5F5F" transform="matrix(1.00, 0.00, -0.00, -1.00, 319.6, 268.1)">L</text><text xml:space="preserve" font-family="Exo2.0-Regular,Exo 2.0" font-size="50.0" fill="#5F5F5F" transform="matrix(1.00, 0.00, -0.00, -1.00, 345.3, 268.1)">D</text><text xml:space="preserve" font-family="Exo2.0-Regular,Exo 2.0" font-size="50.0" fill="#5F5F5F" transform="matrix(1.00, 0.00, -0.00, -1.00, 378.5, 268.1)"> </text><text xml:space="preserve" font-family="Exo2.0-Regular,Exo 2.0" font-size="50.0" fill="#5F5F5F" transform="matrix(1.00, 0.00, -0.00, -1.00, 388.4, 268.1)">A</text><text xml:space="preserve" font-family="Exo2.0-Regular,Exo 2.0" font-size="50.0" fill="#5F5F5F" transform="matrix(1.00, 0.00, -0.00, -1.00, 418.3, 268.1)"> </text><text xml:space="preserve" font-family="Exo2.0-Regular,Exo 2.0" font-size="50.0" fill="#5F5F5F" transform="matrix(1.00, 0.00, -0.00, -1.00, 429.5, 268.1)">U</text><text xml:space="preserve" font-family="Exo2.0-Regular,Exo 2.0" font-size="50.0" fill="#5F5F5F" transform="matrix(1.00, 0.00, -0.00, -1.00, 462.8, 268.1)">I</text><text xml:space="preserve" font-family="Exo2.0-Regular,Exo 2.0" font-size="50.0" fill="#5F5F5F" transform="matrix(1.00, 0.00, -0.00, -1.00, 475.9, 268.1)"> </text><text xml:space="preserve" font-family="Exo2.0-Regular,Exo 2.0" font-size="50.0" fill="#5F5F5F" transform="matrix(1.00, 0.00, -0.00, -1.00, 487.0, 268.1)">L</text><text xml:space="preserve" font-family="Exo2.0-Regular,Exo 2.0" font-size="50.0" fill="#5F5F5F" transform="matrix(1.00, 0.00, -0.00, -1.00, 512.7, 268.1)">I</text><text xml:space="preserve" font-family="Exo2.0-Regular,Exo 2.0" font-size="50.0" fill="#5F5F5F" transform="matrix(1.00, 0.00, -0.00, -1.00, 525.8, 268.1)">B</text><text xml:space="preserve" font-family="Exo2.0-Regular,Exo 2.0" font-size="50.0" fill="#5F5F5F" transform="matrix(1.00, 0.00, -0.00, -1.00, 556.8, 268.1)">R</text><text xml:space="preserve" font-family="Exo2.0-Regular,Exo 2.0" font-size="50.0" fill="#5F5F5F" transform="matrix(1.00, 0.00, -0.00, -1.00, 587.7, 268.1)">A</text><text xml:space="preserve" font-family="Exo2.0-Regular,Exo 2.0" font-size="50.0" fill="#5F5F5F" transform="matrix(1.00, 0.00, -0.00, -1.00, 618.8, 268.1)">R</text><text xml:space="preserve" font-family="Exo2.0-Regular,Exo 2.0" font-size="50.0" fill="#5F5F5F" transform="matrix(1.00, 0.00, -0.00, -1.00, 649.2, 268.1)">Y</text><text xml:space="preserve" font-family="Exo2.0-Black,Exo 2.0" font-weight="bold" font-size="90.0" fill="#1F96BC" transform="matrix(1.00, 0.00, -0.00, -1.00, 1207.7, 334.2)">N</text><text xml:space="preserve" font-family="Exo2.0-Black,Exo 2.0" font-weight="bold" font-size="90.0" fill="#1F96BC" transform="matrix(1.00, 0.00, -0.00, -1.00, 1274.1, 334.2)">E</text><text xml:space="preserve" font-family="Exo2.0-Black,Exo 2.0" font-weight="bold" font-size="90.0" fill="#1F96BC" transform="matrix(1.00, 0.00, -0.00, -1.00, 1327.8, 334.2)">S</text><text xml:space="preserve" font-family="Exo2.0-Black,Exo 2.0" font-weight="bold" font-size="90.0" fill="#1F96BC" transform="matrix(1.00, 0.00, -0.00, -1.00, 1382.7, 334.2)">T</text><text xml:space="preserve" font-family="Exo2.0-Black,Exo 2.0" font-weight="bold" font-size="90.0" fill="#1F96BC" transform="matrix(1.00, 0.00, -0.00, -1.00, 1433.5, 334.2)">A</text><text xml:space="preserve" font-family="Exo2.0-Black,Exo 2.0" font-weight="bold" font-size="90.0" fill="#1F96BC" transform="matrix(1.00, 0.00, -0.00, -1.00, 1495.0, 334.2)">B</text><text xml:space="preserve" font-family="Exo2.0-Black,Exo 2.0" font-weight="bold" font-size="90.0" fill="#1F96BC" transform="matrix(1.00, 0.00, -0.00, -1.00, 1554.4, 334.2)">L</text><text xml:space="preserve" font-family="Exo2.0-Black,Exo 2.0" font-weight="bold" font-size="90.0" fill="#1F96BC" transform="matrix(1.00, 0.00, -0.00, -1.00, 1604.5, 334.2)">E</text><text xml:space="preserve" font-family="Exo2.0-Black,Exo 2.0" font-weight="bold" font-size="90.0" fill="#1F96BC" transform="matrix(1.00, 0.00, -0.00, -1.00, 1658.1, 334.2)"> </text><text xml:space="preserve" font-family="Exo2.0-Regular,Exo 2.0" font-size="50.0" fill="#5F5F5F" transform="matrix(1.00, 0.00, -0.00, -1.00, 992.9, 268.1)">E</text><text xml:space="preserve" font-family="Exo2.0-Regular,Exo 2.0" font-size="50.0" fill="#5F5F5F" transform="matrix(1.00, 0.00, -0.00, -1.00, 1020.9, 268.1)">A</text><text xml:space="preserve" font-family="Exo2.0-Regular,Exo 2.0" font-size="50.0" fill="#5F5F5F" transform="matrix(1.00, 0.00, -0.00, -1.00, 1052.0, 268.1)">S</text><text xml:space="preserve" font-family="Exo2.0-Regular,Exo 2.0" font-size="50.0" fill="#5F5F5F" transform="matrix(1.00, 0.00, -0.00, -1.00, 1079.9, 268.1)">Y</text><text xml:space="preserve" font-family="Exo2.0-Regular,Exo 2.0" font-size="50.0" fill="#5F5F5F" transform="matrix(1.00, 0.00, -0.00, -1.00, 1107.0, 268.1)"> </text><text xml:space="preserve" font-family="Exo2.0-Regular,Exo 2.0" font-size="50.0" fill="#5F5F5F" transform="matrix(1.00, 0.00, -0.00, -1.00, 1118.1, 268.1)">M</text><text xml:space="preserve" font-family="Exo2.0-Regular,Exo 2.0" font-size="50.0" fill="#5F5F5F" transform="matrix(1.00, 0.00, -0.00, -1.00, 1162.0, 268.1)">A</text><text xml:space="preserve" font-family="Exo2.0-Regular,Exo 2.0" font-size="50.0" fill="#5F5F5F" transform="matrix(1.00, 0.00, -0.00, -1.00, 1193.1, 268.1)">N</text><text xml:space="preserve" font-family="Exo2.0-Regular,Exo 2.0" font-size="50.0" fill="#5F5F5F" transform="matrix(1.00, 0.00, -0.00, -1.00, 1228.3, 268.1)">A</text><text xml:space="preserve" font-family="Exo2.0-Regular,Exo 2.0" font-size="50.0" fill="#5F5F5F" transform="matrix(1.00, 0.00, -0.00, -1.00, 1259.2, 268.1)">G</text><text xml:space="preserve" font-family="Exo2.0-Regular,Exo 2.0" font-size="50.0" fill="#5F5F5F" transform="matrix(1.00, 0.00, -0.00, -1.00, 1290.6, 268.1)">E</text><text xml:space="preserve" font-family="Exo2.0-Regular,Exo 2.0" font-size="50.0" fill="#5F5F5F" transform="matrix(1.00, 0.00, -0.00, -1.00, 1318.6, 268.1)">M</text><text xml:space="preserve" font-family="Exo2.0-Regular,Exo 2.0" font-size="50.0" fill="#5F5F5F" transform="matrix(1.00, 0.00, -0.00, -1.00, 1362.5, 268.1)">E</text><text xml:space="preserve" font-family="Exo2.0-Regular,Exo 2.0" font-size="50.0" fill="#5F5F5F" transform="matrix(1.00, 0.00, -0.00, -1.00, 1390.5, 268.1)">N</text><text xml:space="preserve" font-family="Exo2.0-Regular,Exo 2.0" font-size="50.0" fill="#5F5F5F" transform="matrix(1.00, 0.00, -0.00, -1.00, 1425.7, 268.1)">T</text><text xml:space="preserve" font-family="Exo2.0-Regular,Exo 2.0" font-size="50.0" fill="#5F5F5F" transform="matrix(1.00, 0.00, -0.00, -1.00, 1453.6, 268.1)"> </text><text xml:space="preserve" font-family="Exo2.0-Regular,Exo 2.0" font-size="50.0" fill="#5F5F5F" transform="matrix(1.00, 0.00, -0.00, -1.00, 1464.8, 268.1)">O</text><text xml:space="preserve" font-family="Exo2.0-Regular,Exo 2.0" font-size="50.0" fill="#5F5F5F" transform="matrix(1.00, 0.00, -0.00, -1.00, 1498.2, 268.1)">F</text><text xml:space="preserve" font-family="Exo2.0-Regular,Exo 2.0" font-size="50.0" fill="#5F5F5F" transform="matrix(1.00, 0.00, -0.00, -1.00, 1524.3, 268.1)"> </text><text xml:space="preserve" font-family="Exo2.0-Regular,Exo 2.0" font-size="50.0" fill="#5F5F5F" transform="matrix(1.00, 0.00, -0.00, -1.00, 1535.5, 268.1)">D</text><text xml:space="preserve" font-family="Exo2.0-Regular,Exo 2.0" font-size="50.0" fill="#5F5F5F" transform="matrix(1.00, 0.00, -0.00, -1.00, 1568.7, 268.1)">E</text><text xml:space="preserve" font-family="Exo2.0-Regular,Exo 2.0" font-size="50.0" fill="#5F5F5F" transform="matrix(1.00, 0.00, -0.00, -1.00, 1596.7, 268.1)">S</text><text xml:space="preserve" font-family="Exo2.0-Regular,Exo 2.0" font-size="50.0" fill="#5F5F5F" transform="matrix(1.00, 0.00, -0.00, -1.00, 1624.7, 268.1)">C</text><text xml:space="preserve" font-family="Exo2.0-Regular,Exo 2.0" font-size="50.0" fill="#5F5F5F" transform="matrix(1.00, 0.00, -0.00, -1.00, 1653.2, 268.1)">E</text><text xml:space="preserve" font-family="Exo2.0-Regular,Exo 2.0" font-size="50.0" fill="#5F5F5F" transform="matrix(1.00, 0.00, -0.00, -1.00, 1681.2, 268.1)">N</text><text xml:space="preserve" font-family="Exo2.0-Regular,Exo 2.0" font-size="50.0" fill="#5F5F5F" transform="matrix(1.00, 0.00, -0.00, -1.00, 1716.5, 268.1)">D</text><text xml:space="preserve" font-family="Exo2.0-Regular,Exo 2.0" font-size="50.0" fill="#5F5F5F" transform="matrix(1.00, 0.00, -0.00, -1.00, 1749.5, 268.1)">A</text><text xml:space="preserve" font-family="Exo2.0-Regular,Exo 2.0" font-size="50.0" fill="#5F5F5F" transform="matrix(1.00, 0.00, -0.00, -1.00, 1780.6, 268.1)">N</text><text xml:space="preserve" font-family="Exo2.0-Regular,Exo 2.0" font-size="50.0" fill="#5F5F5F" transform="matrix(1.00, 0.00, -0.00, -1.00, 1815.8, 268.1)">T</text><text xml:space="preserve" font-family="Exo2.0-Regular,Exo 2.0" font-size="50.0" fill="#5F5F5F" transform="matrix(1.00, 0.00, -0.00, -1.00, 1844.9, 268.1)">S</text><text xml:space="preserve" font-family="Exo2.0-Black,Exo 2.0" font-weight="bold" font-size="90.0" fill="#1F96BC" transform="matrix(1.00, 0.00, -0.00, -1.00, 617.1, 634.2)">C</text><text xml:space="preserve" font-family="Exo2.0-Black,Exo 2.0" font-weight="bold" font-size="90.0" fill="#1F96BC" transform="matrix(1.00, 0.00, -0.00, -1.00, 671.6, 634.2)">U</text><text xml:space="preserve" font-family="Exo2.0-Black,Exo 2.0" font-weight="bold" font-size="90.0" fill="#1F96BC" transform="matrix(1.00, 0.00, -0.00, -1.00, 735.0, 634.2)">S</text><text xml:space="preserve" font-family="Exo2.0-Black,Exo 2.0" font-weight="bold" font-size="90.0" fill="#1F96BC" transform="matrix(1.00, 0.00, -0.00, -1.00, 789.9, 634.2)">T</text><text xml:space="preserve" font-family="Exo2.0-Black,Exo 2.0" font-weight="bold" font-size="90.0" fill="#1F96BC" transform="matrix(1.00, 0.00, -0.00, -1.00, 845.6, 634.2)">O</text><text xml:space="preserve" font-family="Exo2.0-Black,Exo 2.0" font-weight="bold" font-size="90.0" fill="#1F96BC" transform="matrix(1.00, 0.00, -0.00, -1.00, 909.2, 634.2)">M</text><text xml:space="preserve" font-family="Exo2.0-Black,Exo 2.0" font-weight="bold" font-size="90.0" fill="#1F96BC" transform="matrix(1.00, 0.00, -0.00, -1.00, 994.9, 634.2)">I</text><text xml:space="preserve" font-family="Exo2.0-Black,Exo 2.0" font-weight="bold" font-size="90.0" fill="#1F96BC" transform="matrix(1.00, 0.00, -0.00, -1.00, 1023.8, 634.2)">Z</text><text xml:space="preserve" font-family="Exo2.0-Black,Exo 2.0" font-weight="bold" font-size="90.0" fill="#1F96BC" transform="matrix(1.00, 0.00, -0.00, -1.00, 1078.2, 634.2)">A</text><text xml:space="preserve" font-family="Exo2.0-Black,Exo 2.0" font-weight="bold" font-size="90.0" fill="#1F96BC" transform="matrix(1.00, 0.00, -0.00, -1.00, 1139.7, 634.2)">B</text><text xml:space="preserve" font-family="Exo2.0-Black,Exo 2.0" font-weight="bold" font-size="90.0" fill="#1F96BC" transform="matrix(1.00, 0.00, -0.00, -1.00, 1199.1, 634.2)">L</text><text xml:space="preserve" font-family="Exo2.0-Black,Exo 2.0" font-weight="bold" font-size="90.0" fill="#1F96BC" transform="matrix(1.00, 0.00, -0.00, -1.00, 1249.2, 634.2)">E</text><text xml:space="preserve" font-family="Exo2.0-Black,Exo 2.0" font-weight="bold" font-size="90.0" fill="#1F96BC" transform="matrix(1.00, 0.00, -0.00, -1.00, 1302.9, 634.2)"> </text><text xml:space="preserve" font-family="Exo2.0-Regular,Exo 2.0" font-size="50.0" fill="#5F5F5F" transform="matrix(1.00, 0.00, -0.00, -1.00, 567.9, 568.1)">E</text><text xml:space="preserve" font-family="Exo2.0-Regular,Exo 2.0" font-size="50.0" fill="#5F5F5F" transform="matrix(1.00, 0.00, -0.00, -1.00, 595.9, 568.1)">A</text><text xml:space="preserve" font-family="Exo2.0-Regular,Exo 2.0" font-size="50.0" fill="#5F5F5F" transform="matrix(1.00, 0.00, -0.00, -1.00, 627.0, 568.1)">S</text><text xml:space="preserve" font-family="Exo2.0-Regular,Exo 2.0" font-size="50.0" fill="#5F5F5F" transform="matrix(1.00, 0.00, -0.00, -1.00, 655.0, 568.1)">I</text><text xml:space="preserve" font-family="Exo2.0-Regular,Exo 2.0" font-size="50.0" fill="#5F5F5F" transform="matrix(1.00, 0.00, -0.00, -1.00, 668.1, 568.1)">L</text><text xml:space="preserve" font-family="Exo2.0-Regular,Exo 2.0" font-size="50.0" fill="#5F5F5F" transform="matrix(1.00, 0.00, -0.00, -1.00, 689.3, 568.1)">Y</text><text xml:space="preserve" font-family="Exo2.0-Regular,Exo 2.0" font-size="50.0" fill="#5F5F5F" transform="matrix(1.00, 0.00, -0.00, -1.00, 716.4, 568.1)"> </text><text xml:space="preserve" font-family="Exo2.0-Regular,Exo 2.0" font-size="50.0" fill="#5F5F5F" transform="matrix(1.00, 0.00, -0.00, -1.00, 727.5, 568.1)">S</text><text xml:space="preserve" font-family="Exo2.0-Regular,Exo 2.0" font-size="50.0" fill="#5F5F5F" transform="matrix(1.00, 0.00, -0.00, -1.00, 755.6, 568.1)">U</text><text xml:space="preserve" font-family="Exo2.0-Regular,Exo 2.0" font-size="50.0" fill="#5F5F5F" transform="matrix(1.00, 0.00, -0.00, -1.00, 788.9, 568.1)">B</text><text xml:space="preserve" font-family="Exo2.0-Regular,Exo 2.0" font-size="50.0" fill="#5F5F5F" transform="matrix(1.00, 0.00, -0.00, -1.00, 819.9, 568.1)">C</text><text xml:space="preserve" font-family="Exo2.0-Regular,Exo 2.0" font-size="50.0" fill="#5F5F5F" transform="matrix(1.00, 0.00, -0.00, -1.00, 848.4, 568.1)">L</text><text xml:space="preserve" font-family="Exo2.0-Regular,Exo 2.0" font-size="50.0" fill="#5F5F5F" transform="matrix(1.00, 0.00, -0.00, -1.00, 874.1, 568.1)">A</text><text xml:space="preserve" font-family="Exo2.0-Regular,Exo 2.0" font-size="50.0" fill="#5F5F5F" transform="matrix(1.00, 0.00, -0.00, -1.00, 905.2, 568.1)">S</text><text xml:space="preserve" font-family="Exo2.0-Regular,Exo 2.0" font-size="50.0" fill="#5F5F5F" transform="matrix(1.00, 0.00, -0.00, -1.00, 933.2, 568.1)">S</text><text xml:space="preserve" font-family="Exo2.0-Regular,Exo 2.0" font-size="50.0" fill="#5F5F5F" transform="matrix(1.00, 0.00, -0.00, -1.00, 961.3, 568.1)">E</text><text xml:space="preserve" font-family="Exo2.0-Regular,Exo 2.0" font-size="50.0" fill="#5F5F5F" transform="matrix(1.00, 0.00, -0.00, -1.00, 989.3, 568.1)">D</text><text xml:space="preserve" font-family="Exo2.0-Regular,Exo 2.0" font-size="50.0" fill="#5F5F5F" transform="matrix(1.00, 0.00, -0.00, -1.00, 1022.5, 568.1)"> </text><text xml:space="preserve" font-family="Exo2.0-Regular,Exo 2.0" font-size="50.0" fill="#5F5F5F" transform="matrix(1.00, 0.00, -0.00, -1.00, 1032.4, 568.1)">A</text><text xml:space="preserve" font-family="Exo2.0-Regular,Exo 2.0" font-size="50.0" fill="#5F5F5F" transform="matrix(1.00, 0.00, -0.00, -1.00, 1063.5, 568.1)">N</text><text xml:space="preserve" font-family="Exo2.0-Regular,Exo 2.0" font-size="50.0" fill="#5F5F5F" transform="matrix(1.00, 0.00, -0.00, -1.00, 1098.8, 568.1)">D</text><text xml:space="preserve" font-family="Exo2.0-Regular,Exo 2.0" font-size="50.0" fill="#5F5F5F" transform="matrix(1.00, 0.00, -0.00, -1.00, 1132.0, 568.1)"> </text><text xml:space="preserve" font-family="Exo2.0-Regular,Exo 2.0" font-size="50.0" fill="#5F5F5F" transform="matrix(1.00, 0.00, -0.00, -1.00, 1143.1, 568.1)">F</text><text xml:space="preserve" font-family="Exo2.0-Regular,Exo 2.0" font-size="50.0" fill="#5F5F5F" transform="matrix(1.00, 0.00, -0.00, -1.00, 1170.1, 568.1)">L</text><text xml:space="preserve" font-family="Exo2.0-Regular,Exo 2.0" font-size="50.0" fill="#5F5F5F" transform="matrix(1.00, 0.00, -0.00, -1.00, 1195.8, 568.1)">E</text><text xml:space="preserve" font-family="Exo2.0-Regular,Exo 2.0" font-size="50.0" fill="#5F5F5F" transform="matrix(1.00, 0.00, -0.00, -1.00, 1223.8, 568.1)">X</text><text xml:space="preserve" font-family="Exo2.0-Regular,Exo 2.0" font-size="50.0" fill="#5F5F5F" transform="matrix(1.00, 0.00, -0.00, -1.00, 1254.3, 568.1)">I</text><text xml:space="preserve" font-family="Exo2.0-Regular,Exo 2.0" font-size="50.0" fill="#5F5F5F" transform="matrix(1.00, 0.00, -0.00, -1.00, 1267.4, 568.1)">B</text><text xml:space="preserve" font-family="Exo2.0-Regular,Exo 2.0" font-size="50.0" fill="#5F5F5F" transform="matrix(1.00, 0.00, -0.00, -1.00, 1298.4, 568.1)">L</text><text xml:space="preserve" font-family="Exo2.0-Regular,Exo 2.0" font-size="50.0" fill="#5F5F5F" transform="matrix(1.00, 0.00, -0.00, -1.00, 1324.1, 568.1)">E</text></g></svg>