<?xml version="1.0" encoding="UTF-8" standalone="no"?><svg xmlns="http://www.w3.org/2000/svg" xmlns:xlink="http://www.w3.org/1999/xlink" clip-rule="evenodd" stroke-miterlimit="10" viewBox="0 0 1920 1080"><desc>SVG generated by Keynote</desc><defs></defs><g transform="matrix(1.00, 0.00, -0.00, -1.00, 0.0, 1080.0)"><path d="M 0.0 1080.0 L 1920.0 1080.0 L 1920.0 0.0 L 0.0 0.0 Z M 0.0 1080.0 " fill="#E9E9E9"></path><text xml:space="preserve" font-family="Exo2.0-BoldItalic,Exo 2.0" font-style="italic" font-weight="bold" font-size="72.0" fill="#FF9B00" transform="matrix(1.00, 0.00, -0.00, -1.00, 639.0, 886.7)">P</text><text xml:space="preserve" font-family="Exo2.0-BoldItalic,Exo 2.0" font-style="italic" font-weight="bold" font-size="72.0" fill="#FF9B00" transform="matrix(1.00, 0.00, -0.00, -1.00, 680.8, 886.7)">A</text><text xml:space="preserve" font-family="Exo2.0-BoldItalic,Exo 2.0" font-style="italic" font-weight="bold" font-size="72.0" fill="#FF9B00" transform="matrix(1.00, 0.00, -0.00, -1.00, 727.4, 886.7)">I</text><text xml:space="preserve" font-family="Exo2.0-BoldItalic,Exo 2.0" font-style="italic" font-weight="bold" font-size="72.0" fill="#FF9B00" transform="matrix(1.00, 0.00, -0.00, -1.00, 748.4, 886.7)">R</text><text xml:space="preserve" font-family="Exo2.0-BoldItalic,Exo 2.0" font-style="italic" font-weight="bold" font-size="72.0" fill="#FF9B00" transform="matrix(1.00, 0.00, -0.00, -1.00, 794.5, 886.7)">-</text><text xml:space="preserve" font-family="Exo2.0-BoldItalic,Exo 2.0" font-style="italic" font-weight="bold" font-size="72.0" fill="#FF9B00" transform="matrix(1.00, 0.00, -0.00, -1.00, 823.8, 886.7)">W</text><text xml:space="preserve" font-family="Exo2.0-BoldItalic,Exo 2.0" font-style="italic" font-weight="bold" font-size="72.0" fill="#FF9B00" transform="matrix(1.00, 0.00, -0.00, -1.00, 893.4, 886.7)">I</text><text xml:space="preserve" font-family="Exo2.0-BoldItalic,Exo 2.0" font-style="italic" font-weight="bold" font-size="72.0" fill="#FF9B00" transform="matrix(1.00, 0.00, -0.00, -1.00, 914.4, 886.7)">S</text><text xml:space="preserve" font-family="Exo2.0-BoldItalic,Exo 2.0" font-style="italic" font-weight="bold" font-size="72.0" fill="#FF9B00" transform="matrix(1.00, 0.00, -0.00, -1.00, 956.0, 886.7)">E</text><text xml:space="preserve" font-family="Exo2.0-BoldItalic,Exo 2.0" font-style="italic" font-weight="bold" font-size="72.0" fill="#FF9B00" transform="matrix(1.00, 0.00, -0.00, -1.00, 997.2, 886.7)"> </text><text xml:space="preserve" font-family="Exo2.0-BoldItalic,Exo 2.0" font-style="italic" font-weight="bold" font-size="72.0" fill="#FF9B00" transform="matrix(1.00, 0.00, -0.00, -1.00, 1012.8, 886.7)">D</text><text xml:space="preserve" font-family="Exo2.0-BoldItalic,Exo 2.0" font-style="italic" font-weight="bold" font-size="72.0" fill="#FF9B00" transform="matrix(1.00, 0.00, -0.00, -1.00, 1061.7, 886.7)">I</text><text xml:space="preserve" font-family="Exo2.0-BoldItalic,Exo 2.0" font-style="italic" font-weight="bold" font-size="72.0" fill="#FF9B00" transform="matrix(1.00, 0.00, -0.00, -1.00, 1082.7, 886.7)">F</text><text xml:space="preserve" font-family="Exo2.0-BoldItalic,Exo 2.0" font-style="italic" font-weight="bold" font-size="72.0" fill="#FF9B00" transform="matrix(1.00, 0.00, -0.00, -1.00, 1122.4, 886.7)">F</text><text xml:space="preserve" font-family="Exo2.0-BoldItalic,Exo 2.0" font-style="italic" font-weight="bold" font-size="72.0" fill="#FF9B00" transform="matrix(1.00, 0.00, -0.00, -1.00, 1162.0, 886.7)">I</text><text xml:space="preserve" font-family="Exo2.0-BoldItalic,Exo 2.0" font-style="italic" font-weight="bold" font-size="72.0" fill="#FF9B00" transform="matrix(1.00, 0.00, -0.00, -1.00, 1183.1, 886.7)">N</text><text xml:space="preserve" font-family="Exo2.0-BoldItalic,Exo 2.0" font-style="italic" font-weight="bold" font-size="72.0" fill="#FF9B00" transform="matrix(1.00, 0.00, -0.00, -1.00, 1234.7, 886.7)">G</text><text xml:space="preserve" font-family="Exo2.0-MediumItalic,Exo 2.0" font-style="italic" font-size="42.0" fill="#5F5F5F" transform="matrix(1.00, 0.00, -0.00, -1.00, 731.5, 774.4)">D</text><text xml:space="preserve" font-family="Exo2.0-MediumItalic,Exo 2.0" font-style="italic" font-size="42.0" fill="#5F5F5F" transform="matrix(1.00, 0.00, -0.00, -1.00, 759.3, 774.4)">I</text><text xml:space="preserve" font-family="Exo2.0-MediumItalic,Exo 2.0" font-style="italic" font-size="42.0" fill="#5F5F5F" transform="matrix(1.00, 0.00, -0.00, -1.00, 770.5, 774.4)">F</text><text xml:space="preserve" font-family="Exo2.0-MediumItalic,Exo 2.0" font-style="italic" font-size="42.0" fill="#5F5F5F" transform="matrix(1.00, 0.00, -0.00, -1.00, 793.2, 774.4)">F</text><text xml:space="preserve" font-family="Exo2.0-MediumItalic,Exo 2.0" font-style="italic" font-size="42.0" fill="#5F5F5F" transform="matrix(1.00, 0.00, -0.00, -1.00, 815.8, 774.4)">E</text><text xml:space="preserve" font-family="Exo2.0-MediumItalic,Exo 2.0" font-style="italic" font-size="42.0" fill="#5F5F5F" transform="matrix(1.00, 0.00, -0.00, -1.00, 839.3, 774.4)">R</text><text xml:space="preserve" font-family="Exo2.0-MediumItalic,Exo 2.0" font-style="italic" font-size="42.0" fill="#5F5F5F" transform="matrix(1.00, 0.00, -0.00, -1.00, 865.4, 774.4)">E</text><text xml:space="preserve" font-family="Exo2.0-MediumItalic,Exo 2.0" font-style="italic" font-size="42.0" fill="#5F5F5F" transform="matrix(1.00, 0.00, -0.00, -1.00, 888.9, 774.4)">N</text><text xml:space="preserve" font-family="Exo2.0-MediumItalic,Exo 2.0" font-style="italic" font-size="42.0" fill="#5F5F5F" transform="matrix(1.00, 0.00, -0.00, -1.00, 918.6, 774.4)">T</text><text xml:space="preserve" font-family="Exo2.0-MediumItalic,Exo 2.0" font-style="italic" font-size="42.0" fill="#5F5F5F" transform="matrix(1.00, 0.00, -0.00, -1.00, 941.8, 774.4)"> </text><text xml:space="preserve" font-family="Exo2.0-MediumItalic,Exo 2.0" font-style="italic" font-size="42.0" fill="#5F5F5F" transform="matrix(1.00, 0.00, -0.00, -1.00, 951.1, 774.4)">N</text><text xml:space="preserve" font-family="Exo2.0-MediumItalic,Exo 2.0" font-style="italic" font-size="42.0" fill="#5F5F5F" transform="matrix(1.00, 0.00, -0.00, -1.00, 980.8, 774.4)">O</text><text xml:space="preserve" font-family="Exo2.0-MediumItalic,Exo 2.0" font-style="italic" font-size="42.0" fill="#5F5F5F" transform="matrix(1.00, 0.00, -0.00, -1.00, 1008.8, 774.4)">D</text><text xml:space="preserve" font-family="Exo2.0-MediumItalic,Exo 2.0" font-style="italic" font-size="42.0" fill="#5F5F5F" transform="matrix(1.00, 0.00, -0.00, -1.00, 1036.6, 774.4)">E</text><text xml:space="preserve" font-family="Exo2.0-MediumItalic,Exo 2.0" font-style="italic" font-size="42.0" fill="#5F5F5F" transform="matrix(1.00, 0.00, -0.00, -1.00, 1060.1, 774.4)"> </text><text xml:space="preserve" font-family="Exo2.0-MediumItalic,Exo 2.0" font-style="italic" font-size="42.0" fill="#5F5F5F" transform="matrix(1.00, 0.00, -0.00, -1.00, 1068.5, 774.4)">T</text><text xml:space="preserve" font-family="Exo2.0-MediumItalic,Exo 2.0" font-style="italic" font-size="42.0" fill="#5F5F5F" transform="matrix(1.00, 0.00, -0.00, -1.00, 1092.7, 774.4)">Y</text><text xml:space="preserve" font-family="Exo2.0-MediumItalic,Exo 2.0" font-style="italic" font-size="42.0" fill="#5F5F5F" transform="matrix(1.00, 0.00, -0.00, -1.00, 1116.6, 774.4)">P</text><text xml:space="preserve" font-family="Exo2.0-MediumItalic,Exo 2.0" font-style="italic" font-size="42.0" fill="#5F5F5F" transform="matrix(1.00, 0.00, -0.00, -1.00, 1141.4, 774.4)">E</text><text xml:space="preserve" font-family="Exo2.0-MediumItalic,Exo 2.0" font-style="italic" font-size="42.0" fill="#5F5F5F" transform="matrix(1.00, 0.00, -0.00, -1.00, 1164.9, 774.4)">S</text><text xml:space="preserve" font-family="Exo2.0-MediumItalic,Exo 2.0" font-style="italic" font-size="42.0" fill="#5F5F5F" transform="matrix(1.00, 0.00, -0.00, -1.00, 1188.5, 774.4)"> </text><text xml:space="preserve" font-family="Inconsolata,Inconsolata" font-size="42.0" fill="#5F5F5F" transform="matrix(1.00, 0.00, -0.00, -1.00, 191.9, 681.2)">r</text><text xml:space="preserve" font-family="Inconsolata,Inconsolata" font-size="42.0" fill="#5F5F5F" transform="matrix(1.00, 0.00, -0.00, -1.00, 212.9, 681.2)">e</text><text xml:space="preserve" font-family="Inconsolata,Inconsolata" font-size="42.0" fill="#5F5F5F" transform="matrix(1.00, 0.00, -0.00, -1.00, 233.9, 681.2)">n</text><text xml:space="preserve" font-family="Inconsolata,Inconsolata" font-size="42.0" fill="#5F5F5F" transform="matrix(1.00, 0.00, -0.00, -1.00, 254.9, 681.2)">d</text><text xml:space="preserve" font-family="Inconsolata,Inconsolata" font-size="42.0" fill="#5F5F5F" transform="matrix(1.00, 0.00, -0.00, -1.00, 275.9, 681.2)">e</text><text xml:space="preserve" font-family="Inconsolata,Inconsolata" font-size="42.0" fill="#5F5F5F" transform="matrix(1.00, 0.00, -0.00, -1.00, 296.9, 681.2)">r</text><text xml:space="preserve" font-family="Inconsolata,Inconsolata" font-size="42.0" fill="#5F5F5F" transform="matrix(1.00, 0.00, -0.00, -1.00, 317.9, 681.2)">A</text><text xml:space="preserve" font-family="Inconsolata,Inconsolata" font-size="42.0" fill="#5F5F5F" transform="matrix(1.00, 0.00, -0.00, -1.00, 338.9, 681.2)">:</text><text xml:space="preserve" font-family="Inconsolata,Inconsolata" font-size="42.0" fill="#5F5F5F" transform="matrix(1.00, 0.00, -0.00, -1.00, 359.9, 681.2)"> </text><text xml:space="preserve" font-family="Inconsolata,Inconsolata" font-size="42.0" fill="#1F96BE" transform="matrix(1.00, 0.00, -0.00, -1.00, 380.9, 681.2)">&lt;</text><text xml:space="preserve" font-family="Inconsolata,Inconsolata" font-size="42.0" fill="#1F96BE" transform="matrix(1.00, 0.00, -0.00, -1.00, 401.9, 681.2)">d</text><text xml:space="preserve" font-family="Inconsolata,Inconsolata" font-size="42.0" fill="#1F96BE" transform="matrix(1.00, 0.00, -0.00, -1.00, 422.9, 681.2)">i</text><text xml:space="preserve" font-family="Inconsolata,Inconsolata" font-size="42.0" fill="#1F96BE" transform="matrix(1.00, 0.00, -0.00, -1.00, 443.9, 681.2)">v</text><text xml:space="preserve" font-family="Inconsolata,Inconsolata" font-size="42.0" fill="#1F96BE" transform="matrix(1.00, 0.00, -0.00, -1.00, 464.9, 681.2)"> </text><text xml:space="preserve" font-family="Inconsolata,Inconsolata" font-size="42.0" fill="#1F96BE" transform="matrix(1.00, 0.00, -0.00, -1.00, 485.9, 681.2)">/</text><text xml:space="preserve" font-family="Inconsolata,Inconsolata" font-size="42.0" fill="#1F96BE" transform="matrix(1.00, 0.00, -0.00, -1.00, 506.9, 681.2)">&gt;</text><text xml:space="preserve" font-family="Inconsolata,Inconsolata" font-size="42.0" fill="#1F96BE" transform="matrix(1.00, 0.00, -0.00, -1.00, 527.9, 681.2)"> </text><text xml:space="preserve" font-family="Inconsolata,Inconsolata" font-size="42.0" fill="#5F5F5F" transform="matrix(1.00, 0.00, -0.00, -1.00, 191.9, 635.2)">r</text><text xml:space="preserve" font-family="Inconsolata,Inconsolata" font-size="42.0" fill="#5F5F5F" transform="matrix(1.00, 0.00, -0.00, -1.00, 212.9, 635.2)">e</text><text xml:space="preserve" font-family="Inconsolata,Inconsolata" font-size="42.0" fill="#5F5F5F" transform="matrix(1.00, 0.00, -0.00, -1.00, 233.9, 635.2)">n</text><text xml:space="preserve" font-family="Inconsolata,Inconsolata" font-size="42.0" fill="#5F5F5F" transform="matrix(1.00, 0.00, -0.00, -1.00, 254.9, 635.2)">d</text><text xml:space="preserve" font-family="Inconsolata,Inconsolata" font-size="42.0" fill="#5F5F5F" transform="matrix(1.00, 0.00, -0.00, -1.00, 275.9, 635.2)">e</text><text xml:space="preserve" font-family="Inconsolata,Inconsolata" font-size="42.0" fill="#5F5F5F" transform="matrix(1.00, 0.00, -0.00, -1.00, 296.9, 635.2)">r</text><text xml:space="preserve" font-family="Inconsolata,Inconsolata" font-size="42.0" fill="#5F5F5F" transform="matrix(1.00, 0.00, -0.00, -1.00, 317.9, 635.2)">B</text><text xml:space="preserve" font-family="Inconsolata,Inconsolata" font-size="42.0" fill="#5F5F5F" transform="matrix(1.00, 0.00, -0.00, -1.00, 338.9, 635.2)">:</text><text xml:space="preserve" font-family="Inconsolata,Inconsolata" font-size="42.0" fill="#1F96BE" transform="matrix(1.00, 0.00, -0.00, -1.00, 359.9, 635.2)"> </text><text xml:space="preserve" font-family="Inconsolata,Inconsolata" font-size="42.0" fill="#1F96BE" transform="matrix(1.00, 0.00, -0.00, -1.00, 380.9, 635.2)">&lt;</text><text xml:space="preserve" font-family="Inconsolata,Inconsolata" font-size="42.0" fill="#1F96BE" transform="matrix(1.00, 0.00, -0.00, -1.00, 401.9, 635.2)">s</text><text xml:space="preserve" font-family="Inconsolata,Inconsolata" font-size="42.0" fill="#1F96BE" transform="matrix(1.00, 0.00, -0.00, -1.00, 422.9, 635.2)">p</text><text xml:space="preserve" font-family="Inconsolata,Inconsolata" font-size="42.0" fill="#1F96BE" transform="matrix(1.00, 0.00, -0.00, -1.00, 443.9, 635.2)">a</text><text xml:space="preserve" font-family="Inconsolata,Inconsolata" font-size="42.0" fill="#1F96BE" transform="matrix(1.00, 0.00, -0.00, -1.00, 464.9, 635.2)">n</text><text xml:space="preserve" font-family="Inconsolata,Inconsolata" font-size="42.0" fill="#1F96BE" transform="matrix(1.00, 0.00, -0.00, -1.00, 485.9, 635.2)"> </text><text xml:space="preserve" font-family="Inconsolata,Inconsolata" font-size="42.0" fill="#1F96BE" transform="matrix(1.00, 0.00, -0.00, -1.00, 506.9, 635.2)">/</text><text xml:space="preserve" font-family="Inconsolata,Inconsolata" font-size="42.0" fill="#1F96BE" transform="matrix(1.00, 0.00, -0.00, -1.00, 527.9, 635.2)">&gt;</text><text xml:space="preserve" font-family="Inconsolata,Inconsolata" font-size="42.0" fill="#5F5F5F" transform="matrix(1.00, 0.00, -0.00, -1.00, 548.9, 635.2)"> </text><text xml:space="preserve" font-family="Inconsolata,Inconsolata" font-size="42.0" fill="#5F5F5F" transform="matrix(1.00, 0.00, -0.00, -1.00, 191.9, 589.2)">=</text><text xml:space="preserve" font-family="Inconsolata,Inconsolata" font-size="42.0" fill="#5F5F5F" transform="matrix(1.00, 0.00, -0.00, -1.00, 212.9, 589.2)">&gt;</text><text xml:space="preserve" font-family="Inconsolata,Inconsolata" font-size="42.0" fill="#5F5F5F" transform="matrix(1.00, 0.00, -0.00, -1.00, 233.9, 589.2)"> </text><text xml:space="preserve" font-family="Inconsolata,Inconsolata" font-size="42.0" fill="#5F5F5F" transform="matrix(1.00, 0.00, -0.00, -1.00, 254.9, 589.2)">[</text><text xml:space="preserve" font-family="Inconsolata,Inconsolata" font-size="42.0" fill="#5F5F5F" transform="matrix(1.00, 0.00, -0.00, -1.00, 275.9, 589.2)">r</text><text xml:space="preserve" font-family="Inconsolata,Inconsolata" font-size="42.0" fill="#5F5F5F" transform="matrix(1.00, 0.00, -0.00, -1.00, 296.9, 589.2)">e</text><text xml:space="preserve" font-family="Inconsolata,Inconsolata" font-size="42.0" fill="#5F5F5F" transform="matrix(1.00, 0.00, -0.00, -1.00, 317.9, 589.2)">m</text><text xml:space="preserve" font-family="Inconsolata,Inconsolata" font-size="42.0" fill="#5F5F5F" transform="matrix(1.00, 0.00, -0.00, -1.00, 338.9, 589.2)">o</text><text xml:space="preserve" font-family="Inconsolata,Inconsolata" font-size="42.0" fill="#5F5F5F" transform="matrix(1.00, 0.00, -0.00, -1.00, 359.9, 589.2)">v</text><text xml:space="preserve" font-family="Inconsolata,Inconsolata" font-size="42.0" fill="#5F5F5F" transform="matrix(1.00, 0.00, -0.00, -1.00, 380.9, 589.2)">e</text><text xml:space="preserve" font-family="Inconsolata,Inconsolata" font-size="42.0" fill="#5F5F5F" transform="matrix(1.00, 0.00, -0.00, -1.00, 401.9, 589.2)">N</text><text xml:space="preserve" font-family="Inconsolata,Inconsolata" font-size="42.0" fill="#5F5F5F" transform="matrix(1.00, 0.00, -0.00, -1.00, 422.9, 589.2)">o</text><text xml:space="preserve" font-family="Inconsolata,Inconsolata" font-size="42.0" fill="#5F5F5F" transform="matrix(1.00, 0.00, -0.00, -1.00, 443.9, 589.2)">d</text><text xml:space="preserve" font-family="Inconsolata,Inconsolata" font-size="42.0" fill="#5F5F5F" transform="matrix(1.00, 0.00, -0.00, -1.00, 464.9, 589.2)">e</text><text xml:space="preserve" font-family="Inconsolata,Inconsolata" font-size="42.0" fill="#5F5F5F" transform="matrix(1.00, 0.00, -0.00, -1.00, 485.9, 589.2)"> </text><text xml:space="preserve" font-family="Inconsolata,Inconsolata" font-size="42.0" fill="#1F96BE" transform="matrix(1.00, 0.00, -0.00, -1.00, 506.9, 589.2)">&lt;</text><text xml:space="preserve" font-family="Inconsolata,Inconsolata" font-size="42.0" fill="#1F96BE" transform="matrix(1.00, 0.00, -0.00, -1.00, 527.9, 589.2)">d</text><text xml:space="preserve" font-family="Inconsolata,Inconsolata" font-size="42.0" fill="#1F96BE" transform="matrix(1.00, 0.00, -0.00, -1.00, 548.9, 589.2)">i</text><text xml:space="preserve" font-family="Inconsolata,Inconsolata" font-size="42.0" fill="#1F96BE" transform="matrix(1.00, 0.00, -0.00, -1.00, 569.9, 589.2)">v</text><text xml:space="preserve" font-family="Inconsolata,Inconsolata" font-size="42.0" fill="#1F96BE" transform="matrix(1.00, 0.00, -0.00, -1.00, 590.9, 589.2)"> </text><text xml:space="preserve" font-family="Inconsolata,Inconsolata" font-size="42.0" fill="#1F96BE" transform="matrix(1.00, 0.00, -0.00, -1.00, 611.9, 589.2)">/</text><text xml:space="preserve" font-family="Inconsolata,Inconsolata" font-size="42.0" fill="#1F96BE" transform="matrix(1.00, 0.00, -0.00, -1.00, 632.9, 589.2)">&gt;</text><text xml:space="preserve" font-family="Inconsolata,Inconsolata" font-size="42.0" fill="#5F5F5F" transform="matrix(1.00, 0.00, -0.00, -1.00, 653.9, 589.2)">]</text><text xml:space="preserve" font-family="Inconsolata,Inconsolata" font-size="42.0" fill="#5F5F5F" transform="matrix(1.00, 0.00, -0.00, -1.00, 674.9, 589.2)">,</text><text xml:space="preserve" font-family="Inconsolata,Inconsolata" font-size="42.0" fill="#5F5F5F" transform="matrix(1.00, 0.00, -0.00, -1.00, 695.9, 589.2)"> </text><text xml:space="preserve" font-family="Inconsolata,Inconsolata" font-size="42.0" fill="#5F5F5F" transform="matrix(1.00, 0.00, -0.00, -1.00, 716.9, 589.2)">[</text><text xml:space="preserve" font-family="Inconsolata,Inconsolata" font-size="42.0" fill="#5F5F5F" transform="matrix(1.00, 0.00, -0.00, -1.00, 737.9, 589.2)">i</text><text xml:space="preserve" font-family="Inconsolata,Inconsolata" font-size="42.0" fill="#5F5F5F" transform="matrix(1.00, 0.00, -0.00, -1.00, 758.9, 589.2)">n</text><text xml:space="preserve" font-family="Inconsolata,Inconsolata" font-size="42.0" fill="#5F5F5F" transform="matrix(1.00, 0.00, -0.00, -1.00, 779.9, 589.2)">s</text><text xml:space="preserve" font-family="Inconsolata,Inconsolata" font-size="42.0" fill="#5F5F5F" transform="matrix(1.00, 0.00, -0.00, -1.00, 800.9, 589.2)">e</text><text xml:space="preserve" font-family="Inconsolata,Inconsolata" font-size="42.0" fill="#5F5F5F" transform="matrix(1.00, 0.00, -0.00, -1.00, 821.9, 589.2)">r</text><text xml:space="preserve" font-family="Inconsolata,Inconsolata" font-size="42.0" fill="#5F5F5F" transform="matrix(1.00, 0.00, -0.00, -1.00, 842.9, 589.2)">t</text><text xml:space="preserve" font-family="Inconsolata,Inconsolata" font-size="42.0" fill="#5F5F5F" transform="matrix(1.00, 0.00, -0.00, -1.00, 863.9, 589.2)">N</text><text xml:space="preserve" font-family="Inconsolata,Inconsolata" font-size="42.0" fill="#5F5F5F" transform="matrix(1.00, 0.00, -0.00, -1.00, 884.9, 589.2)">o</text><text xml:space="preserve" font-family="Inconsolata,Inconsolata" font-size="42.0" fill="#5F5F5F" transform="matrix(1.00, 0.00, -0.00, -1.00, 905.9, 589.2)">d</text><text xml:space="preserve" font-family="Inconsolata,Inconsolata" font-size="42.0" fill="#5F5F5F" transform="matrix(1.00, 0.00, -0.00, -1.00, 926.9, 589.2)">e</text><text xml:space="preserve" font-family="Inconsolata,Inconsolata" font-size="42.0" fill="#5F5F5F" transform="matrix(1.00, 0.00, -0.00, -1.00, 947.9, 589.2)"> </text><text xml:space="preserve" font-family="Inconsolata,Inconsolata" font-size="42.0" fill="#1F96BE" transform="matrix(1.00, 0.00, -0.00, -1.00, 968.9, 589.2)">&lt;</text><text xml:space="preserve" font-family="Inconsolata,Inconsolata" font-size="42.0" fill="#1F96BE" transform="matrix(1.00, 0.00, -0.00, -1.00, 989.9, 589.2)">s</text><text xml:space="preserve" font-family="Inconsolata,Inconsolata" font-size="42.0" fill="#1F96BE" transform="matrix(1.00, 0.00, -0.00, -1.00, 1010.9, 589.2)">p</text><text xml:space="preserve" font-family="Inconsolata,Inconsolata" font-size="42.0" fill="#1F96BE" transform="matrix(1.00, 0.00, -0.00, -1.00, 1031.9, 589.2)">a</text><text xml:space="preserve" font-family="Inconsolata,Inconsolata" font-size="42.0" fill="#1F96BE" transform="matrix(1.00, 0.00, -0.00, -1.00, 1052.9, 589.2)">n</text><text xml:space="preserve" font-family="Inconsolata,Inconsolata" font-size="42.0" fill="#1F96BE" transform="matrix(1.00, 0.00, -0.00, -1.00, 1073.9, 589.2)"> </text><text xml:space="preserve" font-family="Inconsolata,Inconsolata" font-size="42.0" fill="#1F96BE" transform="matrix(1.00, 0.00, -0.00, -1.00, 1094.9, 589.2)">/</text><text xml:space="preserve" font-family="Inconsolata,Inconsolata" font-size="42.0" fill="#1F96BE" transform="matrix(1.00, 0.00, -0.00, -1.00, 1115.9, 589.2)">&gt;</text><text xml:space="preserve" font-family="Inconsolata,Inconsolata" font-size="42.0" fill="#5F5F5F" transform="matrix(1.00, 0.00, -0.00, -1.00, 1136.9, 589.2)">]</text><text xml:space="preserve" font-family="Inconsolata,Inconsolata" font-size="42.0" fill="#5F5F5F" transform="matrix(1.00, 0.00, -0.00, -1.00, 1157.9, 589.2)"> </text><text xml:space="preserve" font-family="Exo2.0-MediumItalic,Exo 2.0" font-style="italic" font-size="42.0" fill="#5F5F5F" transform="matrix(1.00, 0.00, -0.00, -1.00, 648.1, 490.4)">E</text><text xml:space="preserve" font-family="Exo2.0-MediumItalic,Exo 2.0" font-style="italic" font-size="42.0" fill="#5F5F5F" transform="matrix(1.00, 0.00, -0.00, -1.00, 671.6, 490.4)">V</text><text xml:space="preserve" font-family="Exo2.0-MediumItalic,Exo 2.0" font-style="italic" font-size="42.0" fill="#5F5F5F" transform="matrix(1.00, 0.00, -0.00, -1.00, 697.2, 490.4)">E</text><text xml:space="preserve" font-family="Exo2.0-MediumItalic,Exo 2.0" font-style="italic" font-size="42.0" fill="#5F5F5F" transform="matrix(1.00, 0.00, -0.00, -1.00, 720.7, 490.4)">N</text><text xml:space="preserve" font-family="Exo2.0-MediumItalic,Exo 2.0" font-style="italic" font-size="42.0" fill="#5F5F5F" transform="matrix(1.00, 0.00, -0.00, -1.00, 750.3, 490.4)"> </text><text xml:space="preserve" font-family="Exo2.0-MediumItalic,Exo 2.0" font-style="italic" font-size="42.0" fill="#5F5F5F" transform="matrix(1.00, 0.00, -0.00, -1.00, 759.7, 490.4)">O</text><text xml:space="preserve" font-family="Exo2.0-MediumItalic,Exo 2.0" font-style="italic" font-size="42.0" fill="#5F5F5F" transform="matrix(1.00, 0.00, -0.00, -1.00, 787.7, 490.4)">N</text><text xml:space="preserve" font-family="Exo2.0-MediumItalic,Exo 2.0" font-style="italic" font-size="42.0" fill="#5F5F5F" transform="matrix(1.00, 0.00, -0.00, -1.00, 817.3, 490.4)"> </text><text xml:space="preserve" font-family="Exo2.0-MediumItalic,Exo 2.0" font-style="italic" font-size="42.0" fill="#5F5F5F" transform="matrix(1.00, 0.00, -0.00, -1.00, 826.7, 490.4)">C</text><text xml:space="preserve" font-family="Exo2.0-MediumItalic,Exo 2.0" font-style="italic" font-size="42.0" fill="#5F5F5F" transform="matrix(1.00, 0.00, -0.00, -1.00, 850.5, 490.4)">U</text><text xml:space="preserve" font-family="Exo2.0-MediumItalic,Exo 2.0" font-style="italic" font-size="42.0" fill="#5F5F5F" transform="matrix(1.00, 0.00, -0.00, -1.00, 878.4, 490.4)">S</text><text xml:space="preserve" font-family="Exo2.0-MediumItalic,Exo 2.0" font-style="italic" font-size="42.0" fill="#5F5F5F" transform="matrix(1.00, 0.00, -0.00, -1.00, 902.0, 490.4)">T</text><text xml:space="preserve" font-family="Exo2.0-MediumItalic,Exo 2.0" font-style="italic" font-size="42.0" fill="#5F5F5F" transform="matrix(1.00, 0.00, -0.00, -1.00, 925.9, 490.4)">O</text><text xml:space="preserve" font-family="Exo2.0-MediumItalic,Exo 2.0" font-style="italic" font-size="42.0" fill="#5F5F5F" transform="matrix(1.00, 0.00, -0.00, -1.00, 953.9, 490.4)">M</text><text xml:space="preserve" font-family="Exo2.0-MediumItalic,Exo 2.0" font-style="italic" font-size="42.0" fill="#5F5F5F" transform="matrix(1.00, 0.00, -0.00, -1.00, 990.8, 490.4)"> </text><text xml:space="preserve" font-family="Exo2.0-MediumItalic,Exo 2.0" font-style="italic" font-size="42.0" fill="#5F5F5F" transform="matrix(1.00, 0.00, -0.00, -1.00, 1000.2, 490.4)">C</text><text xml:space="preserve" font-family="Exo2.0-MediumItalic,Exo 2.0" font-style="italic" font-size="42.0" fill="#5F5F5F" transform="matrix(1.00, 0.00, -0.00, -1.00, 1023.5, 490.4)">O</text><text xml:space="preserve" font-family="Exo2.0-MediumItalic,Exo 2.0" font-style="italic" font-size="42.0" fill="#5F5F5F" transform="matrix(1.00, 0.00, -0.00, -1.00, 1051.6, 490.4)">M</text><text xml:space="preserve" font-family="Exo2.0-MediumItalic,Exo 2.0" font-style="italic" font-size="42.0" fill="#5F5F5F" transform="matrix(1.00, 0.00, -0.00, -1.00, 1088.5, 490.4)">P</text><text xml:space="preserve" font-family="Exo2.0-MediumItalic,Exo 2.0" font-style="italic" font-size="42.0" fill="#5F5F5F" transform="matrix(1.00, 0.00, -0.00, -1.00, 1113.3, 490.4)">O</text><text xml:space="preserve" font-family="Exo2.0-MediumItalic,Exo 2.0" font-style="italic" font-size="42.0" fill="#5F5F5F" transform="matrix(1.00, 0.00, -0.00, -1.00, 1141.3, 490.4)">N</text><text xml:space="preserve" font-family="Exo2.0-MediumItalic,Exo 2.0" font-style="italic" font-size="42.0" fill="#5F5F5F" transform="matrix(1.00, 0.00, -0.00, -1.00, 1171.0, 490.4)">E</text><text xml:space="preserve" font-family="Exo2.0-MediumItalic,Exo 2.0" font-style="italic" font-size="42.0" fill="#5F5F5F" transform="matrix(1.00, 0.00, -0.00, -1.00, 1194.5, 490.4)">N</text><text xml:space="preserve" font-family="Exo2.0-MediumItalic,Exo 2.0" font-style="italic" font-size="42.0" fill="#5F5F5F" transform="matrix(1.00, 0.00, -0.00, -1.00, 1224.1, 490.4)">T</text><text xml:space="preserve" font-family="Exo2.0-MediumItalic,Exo 2.0" font-style="italic" font-size="42.0" fill="#5F5F5F" transform="matrix(1.00, 0.00, -0.00, -1.00, 1248.3, 490.4)">S</text><text xml:space="preserve" font-family="Exo2.0-MediumItalic,Exo 2.0" font-style="italic" font-size="42.0" fill="#5F5F5F" transform="matrix(1.00, 0.00, -0.00, -1.00, 1271.9, 490.4)"> </text><text xml:space="preserve" font-family="Inconsolata,Inconsolata" font-size="42.0" fill="#5F5F5F" transform="matrix(1.00, 0.00, -0.00, -1.00, 191.9, 397.2)">r</text><text xml:space="preserve" font-family="Inconsolata,Inconsolata" font-size="42.0" fill="#5F5F5F" transform="matrix(1.00, 0.00, -0.00, -1.00, 212.9, 397.2)">e</text><text xml:space="preserve" font-family="Inconsolata,Inconsolata" font-size="42.0" fill="#5F5F5F" transform="matrix(1.00, 0.00, -0.00, -1.00, 233.9, 397.2)">n</text><text xml:space="preserve" font-family="Inconsolata,Inconsolata" font-size="42.0" fill="#5F5F5F" transform="matrix(1.00, 0.00, -0.00, -1.00, 254.9, 397.2)">d</text><text xml:space="preserve" font-family="Inconsolata,Inconsolata" font-size="42.0" fill="#5F5F5F" transform="matrix(1.00, 0.00, -0.00, -1.00, 275.9, 397.2)">e</text><text xml:space="preserve" font-family="Inconsolata,Inconsolata" font-size="42.0" fill="#5F5F5F" transform="matrix(1.00, 0.00, -0.00, -1.00, 296.9, 397.2)">r</text><text xml:space="preserve" font-family="Inconsolata,Inconsolata" font-size="42.0" fill="#5F5F5F" transform="matrix(1.00, 0.00, -0.00, -1.00, 317.9, 397.2)">A</text><text xml:space="preserve" font-family="Inconsolata,Inconsolata" font-size="42.0" fill="#5F5F5F" transform="matrix(1.00, 0.00, -0.00, -1.00, 338.9, 397.2)">:</text><text xml:space="preserve" font-family="Inconsolata,Inconsolata" font-size="42.0" fill="#5F5F5F" transform="matrix(1.00, 0.00, -0.00, -1.00, 359.9, 397.2)"> </text><text xml:space="preserve" font-family="Inconsolata,Inconsolata" font-size="42.0" fill="#1F96BE" transform="matrix(1.00, 0.00, -0.00, -1.00, 380.9, 397.2)">&lt;</text><text xml:space="preserve" font-family="Inconsolata,Inconsolata" font-size="42.0" fill="#1F96BE" transform="matrix(1.00, 0.00, -0.00, -1.00, 401.9, 397.2)">H</text><text xml:space="preserve" font-family="Inconsolata,Inconsolata" font-size="42.0" fill="#1F96BE" transform="matrix(1.00, 0.00, -0.00, -1.00, 422.9, 397.2)">e</text><text xml:space="preserve" font-family="Inconsolata,Inconsolata" font-size="42.0" fill="#1F96BE" transform="matrix(1.00, 0.00, -0.00, -1.00, 443.9, 397.2)">a</text><text xml:space="preserve" font-family="Inconsolata,Inconsolata" font-size="42.0" fill="#1F96BE" transform="matrix(1.00, 0.00, -0.00, -1.00, 464.9, 397.2)">d</text><text xml:space="preserve" font-family="Inconsolata,Inconsolata" font-size="42.0" fill="#1F96BE" transform="matrix(1.00, 0.00, -0.00, -1.00, 485.9, 397.2)">e</text><text xml:space="preserve" font-family="Inconsolata,Inconsolata" font-size="42.0" fill="#1F96BE" transform="matrix(1.00, 0.00, -0.00, -1.00, 506.9, 397.2)">r</text><text xml:space="preserve" font-family="Inconsolata,Inconsolata" font-size="42.0" fill="#1F96BE" transform="matrix(1.00, 0.00, -0.00, -1.00, 527.9, 397.2)"> </text><text xml:space="preserve" font-family="Inconsolata,Inconsolata" font-size="42.0" fill="#1F96BE" transform="matrix(1.00, 0.00, -0.00, -1.00, 548.9, 397.2)">/</text><text xml:space="preserve" font-family="Inconsolata,Inconsolata" font-size="42.0" fill="#1F96BE" transform="matrix(1.00, 0.00, -0.00, -1.00, 569.9, 397.2)">&gt;</text><text xml:space="preserve" font-family="Inconsolata,Inconsolata" font-size="42.0" fill="#1F96BE" transform="matrix(1.00, 0.00, -0.00, -1.00, 590.9, 397.2)"> </text><text xml:space="preserve" font-family="Inconsolata,Inconsolata" font-size="42.0" fill="#5F5F5F" transform="matrix(1.00, 0.00, -0.00, -1.00, 191.9, 351.2)">r</text><text xml:space="preserve" font-family="Inconsolata,Inconsolata" font-size="42.0" fill="#5F5F5F" transform="matrix(1.00, 0.00, -0.00, -1.00, 212.9, 351.2)">e</text><text xml:space="preserve" font-family="Inconsolata,Inconsolata" font-size="42.0" fill="#5F5F5F" transform="matrix(1.00, 0.00, -0.00, -1.00, 233.9, 351.2)">n</text><text xml:space="preserve" font-family="Inconsolata,Inconsolata" font-size="42.0" fill="#5F5F5F" transform="matrix(1.00, 0.00, -0.00, -1.00, 254.9, 351.2)">d</text><text xml:space="preserve" font-family="Inconsolata,Inconsolata" font-size="42.0" fill="#5F5F5F" transform="matrix(1.00, 0.00, -0.00, -1.00, 275.9, 351.2)">e</text><text xml:space="preserve" font-family="Inconsolata,Inconsolata" font-size="42.0" fill="#5F5F5F" transform="matrix(1.00, 0.00, -0.00, -1.00, 296.9, 351.2)">r</text><text xml:space="preserve" font-family="Inconsolata,Inconsolata" font-size="42.0" fill="#5F5F5F" transform="matrix(1.00, 0.00, -0.00, -1.00, 317.9, 351.2)">B</text><text xml:space="preserve" font-family="Inconsolata,Inconsolata" font-size="42.0" fill="#5F5F5F" transform="matrix(1.00, 0.00, -0.00, -1.00, 338.9, 351.2)">:</text><text xml:space="preserve" font-family="Inconsolata,Inconsolata" font-size="42.0" fill="#1F96BE" transform="matrix(1.00, 0.00, -0.00, -1.00, 359.9, 351.2)"> </text><text xml:space="preserve" font-family="Inconsolata,Inconsolata" font-size="42.0" fill="#1F96BE" transform="matrix(1.00, 0.00, -0.00, -1.00, 380.9, 351.2)">&lt;</text><text xml:space="preserve" font-family="Inconsolata,Inconsolata" font-size="42.0" fill="#1F96BE" transform="matrix(1.00, 0.00, -0.00, -1.00, 401.9, 351.2)">C</text><text xml:space="preserve" font-family="Inconsolata,Inconsolata" font-size="42.0" fill="#1F96BE" transform="matrix(1.00, 0.00, -0.00, -1.00, 422.9, 351.2)">o</text><text xml:space="preserve" font-family="Inconsolata,Inconsolata" font-size="42.0" fill="#1F96BE" transform="matrix(1.00, 0.00, -0.00, -1.00, 443.9, 351.2)">n</text><text xml:space="preserve" font-family="Inconsolata,Inconsolata" font-size="42.0" fill="#1F96BE" transform="matrix(1.00, 0.00, -0.00, -1.00, 464.9, 351.2)">t</text><text xml:space="preserve" font-family="Inconsolata,Inconsolata" font-size="42.0" fill="#1F96BE" transform="matrix(1.00, 0.00, -0.00, -1.00, 485.9, 351.2)">e</text><text xml:space="preserve" font-family="Inconsolata,Inconsolata" font-size="42.0" fill="#1F96BE" transform="matrix(1.00, 0.00, -0.00, -1.00, 506.9, 351.2)">n</text><text xml:space="preserve" font-family="Inconsolata,Inconsolata" font-size="42.0" fill="#1F96BE" transform="matrix(1.00, 0.00, -0.00, -1.00, 527.9, 351.2)">t</text><text xml:space="preserve" font-family="Inconsolata,Inconsolata" font-size="42.0" fill="#1F96BE" transform="matrix(1.00, 0.00, -0.00, -1.00, 548.9, 351.2)"> </text><text xml:space="preserve" font-family="Inconsolata,Inconsolata" font-size="42.0" fill="#1F96BE" transform="matrix(1.00, 0.00, -0.00, -1.00, 569.9, 351.2)">/</text><text xml:space="preserve" font-family="Inconsolata,Inconsolata" font-size="42.0" fill="#1F96BE" transform="matrix(1.00, 0.00, -0.00, -1.00, 590.9, 351.2)">&gt;</text><text xml:space="preserve" font-family="Inconsolata,Inconsolata" font-size="42.0" fill="#5F5F5F" transform="matrix(1.00, 0.00, -0.00, -1.00, 611.9, 351.2)"> </text><text xml:space="preserve" font-family="Inconsolata,Inconsolata" font-size="42.0" fill="#5F5F5F" transform="matrix(1.00, 0.00, -0.00, -1.00, 191.9, 305.2)">=</text><text xml:space="preserve" font-family="Inconsolata,Inconsolata" font-size="42.0" fill="#5F5F5F" transform="matrix(1.00, 0.00, -0.00, -1.00, 212.9, 305.2)">&gt;</text><text xml:space="preserve" font-family="Inconsolata,Inconsolata" font-size="42.0" fill="#5F5F5F" transform="matrix(1.00, 0.00, -0.00, -1.00, 233.9, 305.2)"> </text><text xml:space="preserve" font-family="Inconsolata,Inconsolata" font-size="42.0" fill="#5F5F5F" transform="matrix(1.00, 0.00, -0.00, -1.00, 254.9, 305.2)">[</text><text xml:space="preserve" font-family="Inconsolata,Inconsolata" font-size="42.0" fill="#5F5F5F" transform="matrix(1.00, 0.00, -0.00, -1.00, 275.9, 305.2)">r</text><text xml:space="preserve" font-family="Inconsolata,Inconsolata" font-size="42.0" fill="#5F5F5F" transform="matrix(1.00, 0.00, -0.00, -1.00, 296.9, 305.2)">e</text><text xml:space="preserve" font-family="Inconsolata,Inconsolata" font-size="42.0" fill="#5F5F5F" transform="matrix(1.00, 0.00, -0.00, -1.00, 317.9, 305.2)">m</text><text xml:space="preserve" font-family="Inconsolata,Inconsolata" font-size="42.0" fill="#5F5F5F" transform="matrix(1.00, 0.00, -0.00, -1.00, 338.9, 305.2)">o</text><text xml:space="preserve" font-family="Inconsolata,Inconsolata" font-size="42.0" fill="#5F5F5F" transform="matrix(1.00, 0.00, -0.00, -1.00, 359.9, 305.2)">v</text><text xml:space="preserve" font-family="Inconsolata,Inconsolata" font-size="42.0" fill="#5F5F5F" transform="matrix(1.00, 0.00, -0.00, -1.00, 380.9, 305.2)">e</text><text xml:space="preserve" font-family="Inconsolata,Inconsolata" font-size="42.0" fill="#5F5F5F" transform="matrix(1.00, 0.00, -0.00, -1.00, 401.9, 305.2)">N</text><text xml:space="preserve" font-family="Inconsolata,Inconsolata" font-size="42.0" fill="#5F5F5F" transform="matrix(1.00, 0.00, -0.00, -1.00, 422.9, 305.2)">o</text><text xml:space="preserve" font-family="Inconsolata,Inconsolata" font-size="42.0" fill="#5F5F5F" transform="matrix(1.00, 0.00, -0.00, -1.00, 443.9, 305.2)">d</text><text xml:space="preserve" font-family="Inconsolata,Inconsolata" font-size="42.0" fill="#5F5F5F" transform="matrix(1.00, 0.00, -0.00, -1.00, 464.9, 305.2)">e</text><text xml:space="preserve" font-family="Inconsolata,Inconsolata" font-size="42.0" fill="#5F5F5F" transform="matrix(1.00, 0.00, -0.00, -1.00, 485.9, 305.2)"> </text><text xml:space="preserve" font-family="Inconsolata,Inconsolata" font-size="42.0" fill="#1F96BE" transform="matrix(1.00, 0.00, -0.00, -1.00, 506.9, 305.2)">&lt;</text><text xml:space="preserve" font-family="Inconsolata,Inconsolata" font-size="42.0" fill="#1F96BE" transform="matrix(1.00, 0.00, -0.00, -1.00, 527.9, 305.2)">H</text><text xml:space="preserve" font-family="Inconsolata,Inconsolata" font-size="42.0" fill="#1F96BE" transform="matrix(1.00, 0.00, -0.00, -1.00, 548.9, 305.2)">e</text><text xml:space="preserve" font-family="Inconsolata,Inconsolata" font-size="42.0" fill="#1F96BE" transform="matrix(1.00, 0.00, -0.00, -1.00, 569.9, 305.2)">a</text><text xml:space="preserve" font-family="Inconsolata,Inconsolata" font-size="42.0" fill="#1F96BE" transform="matrix(1.00, 0.00, -0.00, -1.00, 590.9, 305.2)">d</text><text xml:space="preserve" font-family="Inconsolata,Inconsolata" font-size="42.0" fill="#1F96BE" transform="matrix(1.00, 0.00, -0.00, -1.00, 611.9, 305.2)">e</text><text xml:space="preserve" font-family="Inconsolata,Inconsolata" font-size="42.0" fill="#1F96BE" transform="matrix(1.00, 0.00, -0.00, -1.00, 632.9, 305.2)">r</text><text xml:space="preserve" font-family="Inconsolata,Inconsolata" font-size="42.0" fill="#1F96BE" transform="matrix(1.00, 0.00, -0.00, -1.00, 653.9, 305.2)"> </text><text xml:space="preserve" font-family="Inconsolata,Inconsolata" font-size="42.0" fill="#1F96BE" transform="matrix(1.00, 0.00, -0.00, -1.00, 674.9, 305.2)">/</text><text xml:space="preserve" font-family="Inconsolata,Inconsolata" font-size="42.0" fill="#1F96BE" transform="matrix(1.00, 0.00, -0.00, -1.00, 695.9, 305.2)">&gt;</text><text xml:space="preserve" font-family="Inconsolata,Inconsolata" font-size="42.0" fill="#5F5F5F" transform="matrix(1.00, 0.00, -0.00, -1.00, 716.9, 305.2)">]</text><text xml:space="preserve" font-family="Inconsolata,Inconsolata" font-size="42.0" fill="#5F5F5F" transform="matrix(1.00, 0.00, -0.00, -1.00, 737.9, 305.2)">,</text><text xml:space="preserve" font-family="Inconsolata,Inconsolata" font-size="42.0" fill="#5F5F5F" transform="matrix(1.00, 0.00, -0.00, -1.00, 758.9, 305.2)"> </text><text xml:space="preserve" font-family="Inconsolata,Inconsolata" font-size="42.0" fill="#5F5F5F" transform="matrix(1.00, 0.00, -0.00, -1.00, 779.9, 305.2)">[</text><text xml:space="preserve" font-family="Inconsolata,Inconsolata" font-size="42.0" fill="#5F5F5F" transform="matrix(1.00, 0.00, -0.00, -1.00, 800.9, 305.2)">i</text><text xml:space="preserve" font-family="Inconsolata,Inconsolata" font-size="42.0" fill="#5F5F5F" transform="matrix(1.00, 0.00, -0.00, -1.00, 821.9, 305.2)">n</text><text xml:space="preserve" font-family="Inconsolata,Inconsolata" font-size="42.0" fill="#5F5F5F" transform="matrix(1.00, 0.00, -0.00, -1.00, 842.9, 305.2)">s</text><text xml:space="preserve" font-family="Inconsolata,Inconsolata" font-size="42.0" fill="#5F5F5F" transform="matrix(1.00, 0.00, -0.00, -1.00, 863.9, 305.2)">e</text><text xml:space="preserve" font-family="Inconsolata,Inconsolata" font-size="42.0" fill="#5F5F5F" transform="matrix(1.00, 0.00, -0.00, -1.00, 884.9, 305.2)">r</text><text xml:space="preserve" font-family="Inconsolata,Inconsolata" font-size="42.0" fill="#5F5F5F" transform="matrix(1.00, 0.00, -0.00, -1.00, 905.9, 305.2)">t</text><text xml:space="preserve" font-family="Inconsolata,Inconsolata" font-size="42.0" fill="#5F5F5F" transform="matrix(1.00, 0.00, -0.00, -1.00, 926.9, 305.2)">N</text><text xml:space="preserve" font-family="Inconsolata,Inconsolata" font-size="42.0" fill="#5F5F5F" transform="matrix(1.00, 0.00, -0.00, -1.00, 947.9, 305.2)">o</text><text xml:space="preserve" font-family="Inconsolata,Inconsolata" font-size="42.0" fill="#5F5F5F" transform="matrix(1.00, 0.00, -0.00, -1.00, 968.9, 305.2)">d</text><text xml:space="preserve" font-family="Inconsolata,Inconsolata" font-size="42.0" fill="#5F5F5F" transform="matrix(1.00, 0.00, -0.00, -1.00, 989.9, 305.2)">e</text><text xml:space="preserve" font-family="Inconsolata,Inconsolata" font-size="42.0" fill="#5F5F5F" transform="matrix(1.00, 0.00, -0.00, -1.00, 1010.9, 305.2)"> </text><text xml:space="preserve" font-family="Inconsolata,Inconsolata" font-size="42.0" fill="#1F96BE" transform="matrix(1.00, 0.00, -0.00, -1.00, 1031.9, 305.2)">&lt;</text><text xml:space="preserve" font-family="Inconsolata,Inconsolata" font-size="42.0" fill="#1F96BE" transform="matrix(1.00, 0.00, -0.00, -1.00, 1052.9, 305.2)">C</text><text xml:space="preserve" font-family="Inconsolata,Inconsolata" font-size="42.0" fill="#1F96BE" transform="matrix(1.00, 0.00, -0.00, -1.00, 1073.9, 305.2)">o</text><text xml:space="preserve" font-family="Inconsolata,Inconsolata" font-size="42.0" fill="#1F96BE" transform="matrix(1.00, 0.00, -0.00, -1.00, 1094.9, 305.2)">n</text><text xml:space="preserve" font-family="Inconsolata,Inconsolata" font-size="42.0" fill="#1F96BE" transform="matrix(1.00, 0.00, -0.00, -1.00, 1115.9, 305.2)">t</text><text xml:space="preserve" font-family="Inconsolata,Inconsolata" font-size="42.0" fill="#1F96BE" transform="matrix(1.00, 0.00, -0.00, -1.00, 1136.9, 305.2)">e</text><text xml:space="preserve" font-family="Inconsolata,Inconsolata" font-size="42.0" fill="#1F96BE" transform="matrix(1.00, 0.00, -0.00, -1.00, 1157.9, 305.2)">n</text><text xml:space="preserve" font-family="Inconsolata,Inconsolata" font-size="42.0" fill="#1F96BE" transform="matrix(1.00, 0.00, -0.00, -1.00, 1178.9, 305.2)">t</text><text xml:space="preserve" font-family="Inconsolata,Inconsolata" font-size="42.0" fill="#1F96BE" transform="matrix(1.00, 0.00, -0.00, -1.00, 1199.9, 305.2)"> </text><text xml:space="preserve" font-family="Inconsolata,Inconsolata" font-size="42.0" fill="#1F96BE" transform="matrix(1.00, 0.00, -0.00, -1.00, 1220.9, 305.2)">/</text><text xml:space="preserve" font-family="Inconsolata,Inconsolata" font-size="42.0" fill="#1F96BE" transform="matrix(1.00, 0.00, -0.00, -1.00, 1241.9, 305.2)">&gt;</text><text xml:space="preserve" font-family="Inconsolata,Inconsolata" font-size="42.0" fill="#5F5F5F" transform="matrix(1.00, 0.00, -0.00, -1.00, 1262.9, 305.2)">]</text><text xml:space="preserve" font-family="Inconsolata,Inconsolata" font-size="42.0" fill="#5F5F5F" transform="matrix(1.00, 0.00, -0.00, -1.00, 1283.9, 305.2)"> </text><text xml:space="preserve" font-family="Exo2.0-Black,Exo 2.0" font-weight="bold" font-size="78.0" fill="#1F96BE" transform="matrix(1.00, 0.00, -0.00, -1.00, 192.4, 162.0)">I</text><text xml:space="preserve" font-family="Exo2.0-Black,Exo 2.0" font-weight="bold" font-size="78.0" fill="#1F96BE" transform="matrix(1.00, 0.00, -0.00, -1.00, 217.4, 162.0)">M</text><text xml:space="preserve" font-family="Exo2.0-Black,Exo 2.0" font-weight="bold" font-size="78.0" fill="#1F96BE" transform="matrix(1.00, 0.00, -0.00, -1.00, 291.7, 162.0)">M</text><text xml:space="preserve" font-family="Exo2.0-Black,Exo 2.0" font-weight="bold" font-size="78.0" fill="#1F96BE" transform="matrix(1.00, 0.00, -0.00, -1.00, 365.9, 162.0)">E</text><text xml:space="preserve" font-family="Exo2.0-Black,Exo 2.0" font-weight="bold" font-size="78.0" fill="#1F96BE" transform="matrix(1.00, 0.00, -0.00, -1.00, 412.4, 162.0)">D</text><text xml:space="preserve" font-family="Exo2.0-Black,Exo 2.0" font-weight="bold" font-size="78.0" fill="#1F96BE" transform="matrix(1.00, 0.00, -0.00, -1.00, 467.1, 162.0)">I</text><text xml:space="preserve" font-family="Exo2.0-Black,Exo 2.0" font-weight="bold" font-size="78.0" fill="#1F96BE" transform="matrix(1.00, 0.00, -0.00, -1.00, 492.1, 162.0)">A</text><text xml:space="preserve" font-family="Exo2.0-Black,Exo 2.0" font-weight="bold" font-size="78.0" fill="#1F96BE" transform="matrix(1.00, 0.00, -0.00, -1.00, 540.9, 162.0)">T</text><text xml:space="preserve" font-family="Exo2.0-Black,Exo 2.0" font-weight="bold" font-size="78.0" fill="#1F96BE" transform="matrix(1.00, 0.00, -0.00, -1.00, 589.5, 162.0)">E</text><text xml:space="preserve" font-family="Exo2.0-Black,Exo 2.0" font-weight="bold" font-size="78.0" fill="#1F96BE" transform="matrix(1.00, 0.00, -0.00, -1.00, 635.9, 162.0)"> </text><text xml:space="preserve" font-family="Exo2.0-Black,Exo 2.0" font-weight="bold" font-size="78.0" fill="#1F96BE" transform="matrix(1.00, 0.00, -0.00, -1.00, 652.3, 162.0)">R</text><text xml:space="preserve" font-family="Exo2.0-Black,Exo 2.0" font-weight="bold" font-size="78.0" fill="#1F96BE" transform="matrix(1.00, 0.00, -0.00, -1.00, 705.1, 162.0)">E</text><text xml:space="preserve" font-family="Exo2.0-Black,Exo 2.0" font-weight="bold" font-size="78.0" fill="#1F96BE" transform="matrix(1.00, 0.00, -0.00, -1.00, 751.5, 162.0)">P</text><text xml:space="preserve" font-family="Exo2.0-Black,Exo 2.0" font-weight="bold" font-size="78.0" fill="#1F96BE" transform="matrix(1.00, 0.00, -0.00, -1.00, 801.9, 162.0)">L</text><text xml:space="preserve" font-family="Exo2.0-Black,Exo 2.0" font-weight="bold" font-size="78.0" fill="#1F96BE" transform="matrix(1.00, 0.00, -0.00, -1.00, 845.4, 162.0)">A</text><text xml:space="preserve" font-family="Exo2.0-Black,Exo 2.0" font-weight="bold" font-size="78.0" fill="#1F96BE" transform="matrix(1.00, 0.00, -0.00, -1.00, 898.0, 162.0)">C</text><text xml:space="preserve" font-family="Exo2.0-Black,Exo 2.0" font-weight="bold" font-size="78.0" fill="#1F96BE" transform="matrix(1.00, 0.00, -0.00, -1.00, 945.2, 162.0)">E</text><text xml:space="preserve" font-family="Exo2.0-Black,Exo 2.0" font-weight="bold" font-size="78.0" fill="#1F96BE" transform="matrix(1.00, 0.00, -0.00, -1.00, 991.7, 162.0)">M</text><text xml:space="preserve" font-family="Exo2.0-Black,Exo 2.0" font-weight="bold" font-size="78.0" fill="#1F96BE" transform="matrix(1.00, 0.00, -0.00, -1.00, 1066.0, 162.0)">E</text><text xml:space="preserve" font-family="Exo2.0-Black,Exo 2.0" font-weight="bold" font-size="78.0" fill="#1F96BE" transform="matrix(1.00, 0.00, -0.00, -1.00, 1112.5, 162.0)">N</text><text xml:space="preserve" font-family="Exo2.0-Black,Exo 2.0" font-weight="bold" font-size="78.0" fill="#1F96BE" transform="matrix(1.00, 0.00, -0.00, -1.00, 1170.0, 162.0)">T</text><text xml:space="preserve" font-family="Exo2.0-Black,Exo 2.0" font-weight="bold" font-size="78.0" fill="#1F96BE" transform="matrix(1.00, 0.00, -0.00, -1.00, 1217.0, 162.0)"> </text><text xml:space="preserve" font-family="Exo2.0-Black,Exo 2.0" font-weight="bold" font-size="78.0" fill="#1F96BE" transform="matrix(1.00, 0.00, -0.00, -1.00, 1233.4, 162.0)">O</text><text xml:space="preserve" font-family="Exo2.0-Black,Exo 2.0" font-weight="bold" font-size="78.0" fill="#1F96BE" transform="matrix(1.00, 0.00, -0.00, -1.00, 1288.5, 162.0)">F</text><text xml:space="preserve" font-family="Exo2.0-Black,Exo 2.0" font-weight="bold" font-size="78.0" fill="#1F96BE" transform="matrix(1.00, 0.00, -0.00, -1.00, 1331.9, 162.0)"> </text><text xml:space="preserve" font-family="Exo2.0-Black,Exo 2.0" font-weight="bold" font-size="78.0" fill="#1F96BE" transform="matrix(1.00, 0.00, -0.00, -1.00, 1346.6, 162.0)">T</text><text xml:space="preserve" font-family="Exo2.0-Black,Exo 2.0" font-weight="bold" font-size="78.0" fill="#1F96BE" transform="matrix(1.00, 0.00, -0.00, -1.00, 1395.2, 162.0)">H</text><text xml:space="preserve" font-family="Exo2.0-Black,Exo 2.0" font-weight="bold" font-size="78.0" fill="#1F96BE" transform="matrix(1.00, 0.00, -0.00, -1.00, 1450.9, 162.0)">E</text><text xml:space="preserve" font-family="Exo2.0-Black,Exo 2.0" font-weight="bold" font-size="78.0" fill="#1F96BE" transform="matrix(1.00, 0.00, -0.00, -1.00, 1497.4, 162.0)"> </text><text xml:space="preserve" font-family="Exo2.0-Black,Exo 2.0" font-weight="bold" font-size="78.0" fill="#1F96BE" transform="matrix(1.00, 0.00, -0.00, -1.00, 1513.8, 162.0)">N</text><text xml:space="preserve" font-family="Exo2.0-Black,Exo 2.0" font-weight="bold" font-size="78.0" fill="#1F96BE" transform="matrix(1.00, 0.00, -0.00, -1.00, 1571.3, 162.0)">O</text><text xml:space="preserve" font-family="Exo2.0-Black,Exo 2.0" font-weight="bold" font-size="78.0" fill="#1F96BE" transform="matrix(1.00, 0.00, -0.00, -1.00, 1626.5, 162.0)">D</text><text xml:space="preserve" font-family="Exo2.0-Black,Exo 2.0" font-weight="bold" font-size="78.0" fill="#1F96BE" transform="matrix(1.00, 0.00, -0.00, -1.00, 1681.1, 162.0)">E</text></g></svg>