<?xml version="1.0" encoding="UTF-8" standalone="no"?><svg xmlns="http://www.w3.org/2000/svg" xmlns:xlink="http://www.w3.org/1999/xlink" clip-rule="evenodd" stroke-miterlimit="10" viewBox="0 0 1920 1080"><desc>SVG generated by Keynote</desc><defs></defs><g transform="matrix(1.00, 0.00, -0.00, -1.00, 0.0, 1080.0)"><path d="M 0.0 1080.0 L 1920.0 1080.0 L 1920.0 0.0 L 0.0 0.0 Z M 0.0 1080.0 " fill="#E9E9E9"></path><text xml:space="preserve" font-family="Exo2.0-BoldItalic,Exo 2.0" font-style="italic" font-weight="bold" font-size="72.0" fill="#FF9B00" transform="matrix(1.00, 0.00, -0.00, -1.00, 614.9, 884.7)">A</text><text xml:space="preserve" font-family="Exo2.0-BoldItalic,Exo 2.0" font-style="italic" font-weight="bold" font-size="72.0" fill="#FF9B00" transform="matrix(1.00, 0.00, -0.00, -1.00, 659.7, 884.7)"> </text><text xml:space="preserve" font-family="Exo2.0-BoldItalic,Exo 2.0" font-style="italic" font-weight="bold" font-size="72.0" fill="#FF9B00" transform="matrix(1.00, 0.00, -0.00, -1.00, 675.3, 884.7)">H</text><text xml:space="preserve" font-family="Exo2.0-BoldItalic,Exo 2.0" font-style="italic" font-weight="bold" font-size="72.0" fill="#FF9B00" transform="matrix(1.00, 0.00, -0.00, -1.00, 724.5, 884.7)">U</text><text xml:space="preserve" font-family="Exo2.0-BoldItalic,Exo 2.0" font-style="italic" font-weight="bold" font-size="72.0" fill="#FF9B00" transform="matrix(1.00, 0.00, -0.00, -1.00, 773.3, 884.7)">G</text><text xml:space="preserve" font-family="Exo2.0-BoldItalic,Exo 2.0" font-style="italic" font-weight="bold" font-size="72.0" fill="#FF9B00" transform="matrix(1.00, 0.00, -0.00, -1.00, 819.6, 884.7)">E</text><text xml:space="preserve" font-family="Exo2.0-BoldItalic,Exo 2.0" font-style="italic" font-weight="bold" font-size="72.0" fill="#FF9B00" transform="matrix(1.00, 0.00, -0.00, -1.00, 860.7, 884.7)"> </text><text xml:space="preserve" font-family="Exo2.0-BoldItalic,Exo 2.0" font-style="italic" font-weight="bold" font-size="72.0" fill="#FF9B00" transform="matrix(1.00, 0.00, -0.00, -1.00, 876.4, 884.7)">C</text><text xml:space="preserve" font-family="Exo2.0-BoldItalic,Exo 2.0" font-style="italic" font-weight="bold" font-size="72.0" fill="#FF9B00" transform="matrix(1.00, 0.00, -0.00, -1.00, 917.6, 884.7)">O</text><text xml:space="preserve" font-family="Exo2.0-BoldItalic,Exo 2.0" font-style="italic" font-weight="bold" font-size="72.0" fill="#FF9B00" transform="matrix(1.00, 0.00, -0.00, -1.00, 966.5, 884.7)">M</text><text xml:space="preserve" font-family="Exo2.0-BoldItalic,Exo 2.0" font-style="italic" font-weight="bold" font-size="72.0" fill="#FF9B00" transform="matrix(1.00, 0.00, -0.00, -1.00, 1032.0, 884.7)">M</text><text xml:space="preserve" font-family="Exo2.0-BoldItalic,Exo 2.0" font-style="italic" font-weight="bold" font-size="72.0" fill="#FF9B00" transform="matrix(1.00, 0.00, -0.00, -1.00, 1097.4, 884.7)">U</text><text xml:space="preserve" font-family="Exo2.0-BoldItalic,Exo 2.0" font-style="italic" font-weight="bold" font-size="72.0" fill="#FF9B00" transform="matrix(1.00, 0.00, -0.00, -1.00, 1146.2, 884.7)">N</text><text xml:space="preserve" font-family="Exo2.0-BoldItalic,Exo 2.0" font-style="italic" font-weight="bold" font-size="72.0" fill="#FF9B00" transform="matrix(1.00, 0.00, -0.00, -1.00, 1197.8, 884.7)">I</text><text xml:space="preserve" font-family="Exo2.0-BoldItalic,Exo 2.0" font-style="italic" font-weight="bold" font-size="72.0" fill="#FF9B00" transform="matrix(1.00, 0.00, -0.00, -1.00, 1218.8, 884.7)">T</text><text xml:space="preserve" font-family="Exo2.0-BoldItalic,Exo 2.0" font-style="italic" font-weight="bold" font-size="72.0" fill="#FF9B00" transform="matrix(1.00, 0.00, -0.00, -1.00, 1261.6, 884.7)">Y</text><image xlink:href="../../CA872ECA-5B53-4452-929D-83AD285F3A9B/assets/C6C1623CEFAE4E5158B8E271F86D8851.png" width="204.00" height="64.00" transform="matrix(1.37, 0.00, -0.00, -1.38, 1497.0, 600.0)"></image><image xlink:href="../../CA872ECA-5B53-4452-929D-83AD285F3A9B/assets/24A7B264E354ED9B349C4B0C210EA38C.png" width="994.00" height="170.00" transform="matrix(0.29, 0.00, -0.00, -0.29, 989.0, 789.0)"></image><image xlink:href="../../CA872ECA-5B53-4452-929D-83AD285F3A9B/assets/971E2CF51F7B260E305CD8141EB565B2.png" width="600.00" height="81.00" transform="matrix(1.13, 0.00, -0.00, -1.14, 1093.0, 470.0)"></image><image xlink:href="../../CA872ECA-5B53-4452-929D-83AD285F3A9B/assets/5BEB9CDC41B1FD751BD09F58778AD744.png" width="600.00" height="126.00" transform="matrix(0.61, 0.00, -0.00, -0.61, 270.0, 295.0)"></image><g><clipPath id="clip0x7fec02c96390"><path d="M 507.0 205.0 L 884.0 205.0 L 884.0 83.0 L 507.0 83.0 Z M 506.9 204.6 "></path></clipPath><g clip-path="url(#clip0x7fec02c96390)"><image xlink:href="../../CA872ECA-5B53-4452-929D-83AD285F3A9B/assets/E0E3DA12249613660DDA13D0A78A8A94.png" width="800.00" height="500.00" transform="matrix(0.47, 0.00, -0.00, -0.47, 507.0, 205.0)"></image></g></g><image xlink:href="../../CA872ECA-5B53-4452-929D-83AD285F3A9B/assets/8E15502708C0ECD3A2FC83E0C80EA9B3.png" width="600.00" height="171.00" transform="matrix(0.49, 0.00, -0.00, -0.49, 209.0, 696.0)"></image><image xlink:href="../../CA872ECA-5B53-4452-929D-83AD285F3A9B/assets/EF4D35C71A3806ADE8126713114FE894.png" width="812.00" height="224.00" transform="matrix(0.45, 0.00, -0.00, -0.45, 104.0, 422.0)"></image><g><clipPath id="clip0x7fec02ea42e0"><path d="M 588.0 471.0 L 1011.0 471.0 L 1011.0 377.0 L 588.0 377.0 Z M 587.5 471.1 "></path></clipPath><g clip-path="url(#clip0x7fec02ea42e0)"><image xlink:href="../../CA872ECA-5B53-4452-929D-83AD285F3A9B/assets/369EE311D952B7F5302691AC6505B2FC.png" width="1077.00" height="231.00" transform="matrix(0.41, 0.00, -0.00, -0.41, 587.0, 471.0)"></image></g></g><image xlink:href="../../CA872ECA-5B53-4452-929D-83AD285F3A9B/assets/9F2E40E9A2ADD3E4C74E10A67CC54CB3.png" width="800.00" height="209.00" transform="matrix(0.51, 0.00, -0.00, -0.51, 1400.0, 189.0)"></image><image xlink:href="../../CA872ECA-5B53-4452-929D-83AD285F3A9B/assets/FD4E394927F152DDBFEAB144DBE98321.png" width="800.00" height="288.00" transform="matrix(0.38, 0.00, -0.00, -0.39, 119.0, 191.0)"></image><g><clipPath id="clip0x7fec02f58a20"><path d="M 50.0 570.7 L 426.4 570.7 L 426.4 464.0 L 50.0 464.0 Z M 50.0 570.7 "></path></clipPath><g clip-path="url(#clip0x7fec02f58a20)"><g><clipPath id="clip0x7fec02f678c0"><path d="M 50.0 464.0 L 427.0 464.0 L 427.0 571.0 L 50.0 571.0 Z M 50.0 464.0 "></path></clipPath><g clip-path="url(#clip0x7fec02f678c0)"><path d="M 69.4 570.3 C 61.7 567.1 53.2 558.0 50.5 546.6 C 47.1 532.1 61.2 526.0 62.4 528.0 C 63.8 530.3 59.9 531.1 59.1 538.7 C 58.0 548.4 62.5 559.2 68.2 564.0 C 69.3 564.8 69.2 563.6 69.2 561.3 C 69.2 557.3 69.0 520.7 69.0 513.1 C 69.0 502.8 68.6 499.5 67.8 496.3 C 67.0 493.1 65.8 490.9 66.7 490.0 C 67.8 489.1 72.3 491.3 74.9 495.0 C 78.0 499.3 79.1 504.6 79.3 510.3 C 79.6 517.1 79.6 528.0 79.6 534.2 C 79.6 539.9 79.7 556.6 79.5 566.6 C 79.4 569.1 72.6 571.7 69.4 570.3 " fill="#343433"></path><path d="M 343.0 522.1 C 342.7 516.7 341.5 512.5 340.1 509.5 C 337.2 503.8 331.3 502.0 328.8 510.3 C 327.4 514.8 327.3 522.3 328.3 528.5 C 329.3 534.9 332.1 539.7 336.8 539.3 C 341.3 538.8 343.5 532.9 343.0 522.1 Z M 265.9 488.8 C 265.8 479.9 264.4 472.1 261.4 469.8 C 257.1 466.6 251.4 469.0 252.6 475.5 C 253.6 481.2 258.6 487.1 265.9 494.3 C 265.9 494.3 265.9 492.7 265.9 488.8 Z M 264.7 522.1 C 264.4 517.2 263.2 512.3 261.8 509.5 C 258.9 503.8 253.0 502.0 250.5 510.3 C 248.8 515.9 249.2 523.2 250.0 527.8 C 251.1 533.7 253.8 539.3 258.5 539.3 C 263.1 539.3 265.3 534.2 264.7 522.1 Z M 220.0 522.2 C 219.7 517.0 218.7 512.7 217.1 509.5 C 214.2 503.9 208.4 502.1 205.8 510.3 C 204.0 516.2 204.6 524.3 205.4 528.6 C 206.5 535.1 209.4 539.7 213.8 539.3 C 218.4 538.8 220.6 532.9 220.0 522.2 Z M 424.7 516.1 C 423.6 516.1 423.1 515.0 422.7 513.1 C 421.2 506.3 419.7 504.8 417.7 504.8 C 415.5 504.8 413.5 508.1 413.0 514.8 C 412.6 520.1 412.6 529.7 413.2 539.3 C 413.3 541.3 412.7 543.3 407.4 545.2 C 405.1 546.0 401.8 547.3 400.2 543.3 C 395.5 532.0 393.7 523.1 393.2 519.4 C 393.2 519.3 393.0 519.2 392.9 519.7 C 392.7 522.6 392.1 527.8 392.0 538.9 C 392.0 541.1 391.5 543.0 389.1 544.5 C 387.6 545.4 382.8 547.2 381.2 545.1 C 379.7 543.4 378.0 538.9 376.2 533.5 C 374.8 529.2 373.8 526.2 373.8 526.2 C 373.8 526.2 373.8 538.0 373.8 542.5 C 373.8 544.1 372.7 544.7 372.3 544.8 C 370.7 545.3 367.6 546.0 366.3 546.0 C 364.7 546.0 364.3 545.1 364.3 543.8 C 364.3 543.6 364.0 528.3 364.0 517.5 C 364.0 517.1 364.0 516.6 364.0 516.0 C 363.2 511.1 360.2 504.4 357.1 504.4 C 353.9 504.4 352.4 507.2 352.4 520.0 C 352.4 527.5 352.6 530.7 352.7 536.1 C 352.8 539.2 352.9 541.6 352.9 542.1 C 352.9 543.8 350.0 544.6 348.7 545.0 C 347.3 545.3 346.2 545.4 345.3 545.3 C 344.0 545.3 343.1 544.4 343.1 543.3 C 343.1 542.6 343.1 541.4 343.1 541.4 C 341.4 544.1 338.7 545.9 336.9 546.4 C 332.2 547.8 327.2 546.6 323.4 541.3 C 320.4 537.1 318.6 532.3 317.9 525.5 C 317.3 520.5 317.5 515.5 318.4 511.2 C 317.3 506.4 315.2 504.4 313.0 504.4 C 309.7 504.4 307.3 509.8 307.6 519.1 C 307.7 525.2 309.0 529.5 310.3 535.7 C 310.9 538.3 310.4 539.7 309.3 541.1 C 308.2 542.3 305.9 542.9 302.6 542.1 C 300.3 541.6 297.0 541.0 293.9 540.5 C 293.9 540.5 294.1 541.3 294.3 542.6 C 295.1 549.3 287.7 548.8 285.4 546.6 C 284.0 545.3 283.0 543.8 282.6 541.1 C 282.1 536.7 285.6 534.7 285.6 534.7 C 284.4 529.4 281.6 522.4 278.6 517.4 C 277.1 514.7 275.9 512.7 274.3 510.6 C 274.3 511.3 274.3 512.1 274.3 512.9 C 274.3 524.1 274.4 532.9 274.5 536.1 C 274.5 539.2 274.7 541.5 274.7 542.1 C 274.6 543.3 273.9 543.8 272.4 544.3 C 271.1 544.9 269.6 545.2 268.0 545.3 C 266.0 545.5 264.8 544.4 264.8 543.1 C 264.8 542.9 264.8 541.4 264.8 541.4 C 263.1 544.1 260.5 545.9 258.7 546.4 C 253.9 547.8 248.9 546.6 245.1 541.3 C 242.1 537.1 240.1 531.2 239.6 525.6 C 239.1 520.3 239.2 515.9 239.9 512.1 C 239.1 508.3 236.9 504.4 234.4 504.4 C 231.3 504.4 229.5 507.2 229.5 520.0 C 229.5 527.5 229.7 530.7 229.8 536.1 C 229.9 539.2 230.0 541.6 230.0 542.1 C 230.0 543.8 227.1 544.6 225.7 545.0 C 224.3 545.3 223.1 545.4 222.2 545.3 C 221.0 545.2 220.1 544.1 220.1 543.3 C 220.1 542.5 220.1 541.4 220.1 541.4 C 218.5 544.1 215.8 545.9 214.0 546.4 C 209.2 547.8 204.2 546.5 200.4 541.3 C 198.0 537.9 195.9 534.1 194.9 525.6 C 194.6 523.2 194.5 520.9 194.5 518.8 C 193.5 512.8 189.1 505.8 185.6 505.8 C 183.5 505.8 181.5 509.9 181.5 518.5 C 181.5 530.0 182.2 546.4 182.3 547.9 C 182.3 547.9 186.8 548.0 187.7 548.0 C 190.0 548.1 192.0 548.0 195.0 548.2 C 196.5 548.2 198.0 553.6 196.4 554.3 C 195.7 554.6 190.7 554.9 188.8 554.9 C 187.1 554.9 182.5 555.3 182.5 555.3 C 182.5 555.3 182.9 566.1 183.0 567.3 C 183.1 568.2 181.8 568.7 181.1 569.0 C 179.4 569.8 177.9 570.1 176.0 570.5 C 173.5 571.0 172.3 570.5 172.1 568.4 C 171.8 565.1 171.6 555.6 171.6 555.6 C 169.8 555.6 163.4 556.0 161.6 556.0 C 159.8 556.0 158.0 548.6 160.3 548.5 C 163.1 548.4 167.9 548.3 171.0 548.2 C 171.0 548.2 170.9 531.6 170.9 526.4 C 170.9 525.9 170.9 525.4 170.9 524.8 C 169.2 515.8 163.0 510.8 163.0 510.8 C 164.3 516.9 161.6 521.4 156.8 525.2 C 155.0 526.6 151.5 529.3 147.5 532.2 C 147.5 532.2 149.8 534.4 151.8 539.0 C 153.3 542.2 153.3 545.9 149.8 546.7 C 144.0 548.0 139.2 543.7 137.7 539.2 C 136.6 535.6 137.2 533.0 139.4 530.3 C 139.5 530.1 139.7 529.9 139.9 529.7 C 138.6 527.1 136.8 523.7 135.2 521.1 C 131.0 513.7 127.8 507.9 125.3 507.9 C 123.4 507.9 123.4 513.8 123.4 519.3 C 123.4 524.1 123.8 531.3 124.0 538.7 C 124.1 541.1 122.9 542.5 120.9 543.8 C 119.6 544.6 116.9 546.1 115.4 546.1 C 113.1 546.1 106.4 545.8 100.1 527.5 C 99.3 525.2 97.7 521.0 97.7 521.0 L 97.9 543.0 C 97.9 543.5 97.6 544.0 97.0 544.3 C 95.9 544.9 93.1 546.1 90.5 546.1 C 89.3 546.1 88.7 545.5 88.7 544.4 L 88.5 510.1 C 88.5 507.5 88.6 504.5 88.8 503.1 C 89.1 501.8 89.5 500.7 90.0 500.1 C 90.5 499.4 91.1 498.9 92.1 498.7 C 93.0 498.5 98.0 497.9 98.3 499.8 C 98.6 502.1 98.6 504.6 101.2 513.8 C 105.3 528.2 110.7 535.2 113.2 537.7 C 113.6 538.1 114.1 538.2 114.1 537.5 C 114.0 534.3 113.6 526.4 113.4 519.7 C 112.7 501.8 115.9 498.5 120.6 498.5 C 124.2 498.5 129.2 502.0 134.6 511.0 C 137.9 516.6 141.2 522.1 143.5 526.0 C 145.2 524.5 147.0 522.9 148.8 521.1 C 153.1 517.1 154.5 513.3 153.6 509.6 C 152.9 506.8 150.2 504.0 145.4 506.8 C 144.0 507.6 143.5 508.2 142.1 509.1 C 141.3 509.6 140.2 509.8 139.5 509.2 C 137.7 507.9 136.7 506.2 136.1 504.1 C 135.5 502.0 137.6 500.9 139.7 500.0 C 141.6 499.2 145.5 498.4 148.0 498.4 C 157.9 498.0 165.7 503.1 171.2 516.1 C 172.2 504.9 176.3 498.5 183.6 498.5 C 188.4 498.5 193.3 504.7 195.4 510.9 C 196.0 508.4 196.9 506.2 198.1 504.4 C 203.7 495.5 214.5 497.4 219.9 504.9 C 221.6 507.3 221.9 508.1 221.9 508.1 C 222.7 501.0 228.4 498.5 231.6 498.5 C 235.3 498.5 239.1 500.3 241.7 506.2 C 242.0 505.6 242.4 504.9 242.8 504.4 C 248.3 495.5 259.2 497.4 264.6 504.9 C 264.9 505.3 265.1 505.6 265.3 505.9 L 265.4 501.2 C 265.4 501.2 262.3 498.4 260.4 496.6 C 252.0 489.0 245.7 483.1 245.2 476.3 C 244.6 467.7 251.6 464.5 256.9 464.0 C 262.6 463.6 267.4 466.7 270.4 471.1 C 273.0 474.9 274.7 483.2 274.6 491.3 C 274.5 494.6 274.4 498.8 274.4 503.2 C 277.3 506.6 280.7 510.9 283.7 516.0 C 287.0 521.5 290.6 528.9 292.4 534.7 C 292.4 534.7 295.5 534.7 298.8 534.9 C 299.9 534.9 300.2 534.7 300.0 534.0 C 299.8 533.0 295.8 517.8 299.4 507.7 C 301.9 500.7 307.5 498.5 310.7 498.5 C 314.6 498.5 318.3 501.4 320.3 505.7 C 320.5 505.3 320.8 504.8 321.0 504.4 C 326.6 495.5 337.4 497.4 342.9 504.9 C 344.1 506.6 344.8 508.1 344.8 508.1 C 346.0 500.8 351.7 498.5 355.0 498.5 C 358.4 498.5 361.6 499.9 364.2 506.1 C 364.3 503.4 364.5 501.1 364.8 500.4 C 364.9 500.0 365.9 499.4 366.6 499.2 C 369.7 498.0 372.9 498.6 374.1 498.8 C 374.9 499.0 375.5 499.6 375.6 501.3 C 375.8 505.7 375.7 513.2 377.1 518.7 C 379.3 528.0 381.4 531.6 382.4 533.4 C 383.0 534.4 383.6 534.5 383.6 533.5 C 383.7 531.3 383.8 525.1 384.6 516.6 C 385.3 510.4 386.1 506.8 386.8 505.6 C 388.7 502.3 391.0 502.1 392.9 502.1 C 394.1 502.1 396.6 502.5 396.4 504.6 C 396.3 505.6 396.5 511.9 398.7 521.1 C 400.1 527.1 402.6 532.4 403.4 534.4 C 403.7 535.1 403.9 534.6 403.9 534.5 C 403.7 530.3 403.3 516.9 405.0 509.6 C 407.2 499.6 413.8 498.5 416.1 498.5 C 421.0 498.5 425.0 502.2 426.3 512.0 C 426.7 514.3 426.2 516.1 424.7 516.1 " fill="#343433"></path></g></g></g></g><image xlink:href="../../CA872ECA-5B53-4452-929D-83AD285F3A9B/assets/73A2576921F5361CBA687FBAFE665528.png" width="620.00" height="144.00" transform="matrix(0.77, 0.00, -0.00, -0.77, 1339.0, 853.0)"></image><image xlink:href="../../CA872ECA-5B53-4452-929D-83AD285F3A9B/assets/EC44C2A74AA4882344A0F5F98041639E.png" width="596.00" height="162.00" transform="matrix(0.56, 0.00, -0.00, -0.57, 1486.0, 361.0)"></image><image xlink:href="../../CA872ECA-5B53-4452-929D-83AD285F3A9B/assets/3AA890BFA45E3A59DB6C04911B9A58E6.png" width="800.00" height="267.00" transform="matrix(0.38, 0.00, -0.00, -0.38, 686.0, 338.0)"></image><g><clipPath id="clip0x7fec02ea9390"><path d="M 521.0 604.0 L 1129.0 604.0 L 1129.0 508.0 L 521.0 508.0 Z M 520.6 604.4 "></path></clipPath><g clip-path="url(#clip0x7fec02ea9390)"><image xlink:href="../../CA872ECA-5B53-4452-929D-83AD285F3A9B/assets/BAEF42B5B4B5B6675BC97539A35122F4.png" width="1020.00" height="680.00" transform="matrix(0.60, 0.00, -0.00, -0.60, 521.0, 759.0)"></image></g></g><image xlink:href="../../CA872ECA-5B53-4452-929D-83AD285F3A9B/assets/A21932FFD0DD1A7BA3A4587A919491F7.png" width="1472.00" height="207.00" transform="matrix(0.22, 0.00, -0.00, -0.22, 1162.0, 670.0)"></image><image xlink:href="../../CA872ECA-5B53-4452-929D-83AD285F3A9B/assets/FA8D36944BC10F8C6585B751CE743010.png" width="786.00" height="149.00" transform="matrix(0.38, 0.00, -0.00, -0.38, 1065.0, 315.0)"></image><image xlink:href="../../CA872ECA-5B53-4452-929D-83AD285F3A9B/assets/CCE3FD312716010316C2F0778D047181.png" width="488.00" height="240.00" transform="matrix(1.00, 0.00, -0.00, -1.00, 918.0, 264.0)"></image><image xlink:href="../../CA872ECA-5B53-4452-929D-83AD285F3A9B/assets/2EA9F6E1AC916238BD83D09428BBF4D5.png" width="998.00" height="231.00" transform="matrix(0.46, 0.00, -0.00, -0.46, 124.0, 868.0)"></image><image xlink:href="../../CA872ECA-5B53-4452-929D-83AD285F3A9B/assets/40C673E24A823DF12EACD11556CCF5BB.png" width="376.00" height="240.00" transform="matrix(1.00, 0.00, -0.00, -1.00, 637.0, 860.0)"></image></g></svg>