<?xml version="1.0" encoding="UTF-8" standalone="no"?><svg xmlns="http://www.w3.org/2000/svg" xmlns:xlink="http://www.w3.org/1999/xlink" clip-rule="evenodd" stroke-miterlimit="10" viewBox="0 0 1920 1080"><desc>SVG generated by Keynote</desc><defs></defs><g transform="matrix(1.00, 0.00, -0.00, -1.00, 0.0, 1080.0)"><path d="M 0.0 1080.0 L 1920.0 1080.0 L 1920.0 0.0 L 0.0 0.0 Z M 0.0 1080.0 " fill="#E9E9E9"></path><text xml:space="preserve" font-family="Exo2.0-BoldItalic,Exo 2.0" font-style="italic" font-weight="bold" font-size="72.0" fill="#FF9B00" transform="matrix(1.00, 0.00, -0.00, -1.00, 500.7, 884.7)">W</text><text xml:space="preserve" font-family="Exo2.0-BoldItalic,Exo 2.0" font-style="italic" font-weight="bold" font-size="72.0" fill="#FF9B00" transform="matrix(1.00, 0.00, -0.00, -1.00, 570.3, 884.7)">H</text><text xml:space="preserve" font-family="Exo2.0-BoldItalic,Exo 2.0" font-style="italic" font-weight="bold" font-size="72.0" fill="#FF9B00" transform="matrix(1.00, 0.00, -0.00, -1.00, 619.6, 884.7)">A</text><text xml:space="preserve" font-family="Exo2.0-BoldItalic,Exo 2.0" font-style="italic" font-weight="bold" font-size="72.0" fill="#FF9B00" transform="matrix(1.00, 0.00, -0.00, -1.00, 661.9, 884.7)">T</text><text xml:space="preserve" font-family="Exo2.0-BoldItalic,Exo 2.0" font-style="italic" font-weight="bold" font-size="72.0" fill="#FF9B00" transform="matrix(1.00, 0.00, -0.00, -1.00, 703.1, 884.7)"> </text><text xml:space="preserve" font-family="Exo2.0-BoldItalic,Exo 2.0" font-style="italic" font-weight="bold" font-size="72.0" fill="#FF9B00" transform="matrix(1.00, 0.00, -0.00, -1.00, 718.7, 884.7)">I</text><text xml:space="preserve" font-family="Exo2.0-BoldItalic,Exo 2.0" font-style="italic" font-weight="bold" font-size="72.0" fill="#FF9B00" transform="matrix(1.00, 0.00, -0.00, -1.00, 739.8, 884.7)">S</text><text xml:space="preserve" font-family="Exo2.0-BoldItalic,Exo 2.0" font-style="italic" font-weight="bold" font-size="72.0" fill="#FF9B00" transform="matrix(1.00, 0.00, -0.00, -1.00, 781.4, 884.7)"> </text><text xml:space="preserve" font-family="Exo2.0-BoldItalic,Exo 2.0" font-style="italic" font-weight="bold" font-size="72.0" fill="#FF9B00" transform="matrix(1.00, 0.00, -0.00, -1.00, 795.3, 884.7)">T</text><text xml:space="preserve" font-family="Exo2.0-BoldItalic,Exo 2.0" font-style="italic" font-weight="bold" font-size="72.0" fill="#FF9B00" transform="matrix(1.00, 0.00, -0.00, -1.00, 838.1, 884.7)">H</text><text xml:space="preserve" font-family="Exo2.0-BoldItalic,Exo 2.0" font-style="italic" font-weight="bold" font-size="72.0" fill="#FF9B00" transform="matrix(1.00, 0.00, -0.00, -1.00, 887.4, 884.7)">E</text><text xml:space="preserve" font-family="Exo2.0-BoldItalic,Exo 2.0" font-style="italic" font-weight="bold" font-size="72.0" fill="#FF9B00" transform="matrix(1.00, 0.00, -0.00, -1.00, 928.5, 884.7)"> </text><text xml:space="preserve" font-family="Exo2.0-BoldItalic,Exo 2.0" font-style="italic" font-weight="bold" font-size="72.0" fill="#FF9B00" transform="matrix(1.00, 0.00, -0.00, -1.00, 944.2, 884.7)">P</text><text xml:space="preserve" font-family="Exo2.0-BoldItalic,Exo 2.0" font-style="italic" font-weight="bold" font-size="72.0" fill="#FF9B00" transform="matrix(1.00, 0.00, -0.00, -1.00, 988.0, 884.7)">O</text><text xml:space="preserve" font-family="Exo2.0-BoldItalic,Exo 2.0" font-style="italic" font-weight="bold" font-size="72.0" fill="#FF9B00" transform="matrix(1.00, 0.00, -0.00, -1.00, 1037.0, 884.7)">I</text><text xml:space="preserve" font-family="Exo2.0-BoldItalic,Exo 2.0" font-style="italic" font-weight="bold" font-size="72.0" fill="#FF9B00" transform="matrix(1.00, 0.00, -0.00, -1.00, 1058.0, 884.7)">N</text><text xml:space="preserve" font-family="Exo2.0-BoldItalic,Exo 2.0" font-style="italic" font-weight="bold" font-size="72.0" fill="#FF9B00" transform="matrix(1.00, 0.00, -0.00, -1.00, 1109.6, 884.7)">T</text><text xml:space="preserve" font-family="Exo2.0-BoldItalic,Exo 2.0" font-style="italic" font-weight="bold" font-size="72.0" fill="#FF9B00" transform="matrix(1.00, 0.00, -0.00, -1.00, 1150.8, 884.7)"> </text><text xml:space="preserve" font-family="Exo2.0-BoldItalic,Exo 2.0" font-style="italic" font-weight="bold" font-size="72.0" fill="#FF9B00" transform="matrix(1.00, 0.00, -0.00, -1.00, 1166.4, 884.7)">O</text><text xml:space="preserve" font-family="Exo2.0-BoldItalic,Exo 2.0" font-style="italic" font-weight="bold" font-size="72.0" fill="#FF9B00" transform="matrix(1.00, 0.00, -0.00, -1.00, 1215.4, 884.7)">F</text><text xml:space="preserve" font-family="Exo2.0-BoldItalic,Exo 2.0" font-style="italic" font-weight="bold" font-size="72.0" fill="#FF9B00" transform="matrix(1.00, 0.00, -0.00, -1.00, 1253.9, 884.7)"> </text><text xml:space="preserve" font-family="Exo2.0-BoldItalic,Exo 2.0" font-style="italic" font-weight="bold" font-size="72.0" fill="#FF9B00" transform="matrix(1.00, 0.00, -0.00, -1.00, 1268.3, 884.7)">J</text><text xml:space="preserve" font-family="Exo2.0-BoldItalic,Exo 2.0" font-style="italic" font-weight="bold" font-size="72.0" fill="#FF9B00" transform="matrix(1.00, 0.00, -0.00, -1.00, 1294.6, 884.7)">S</text><text xml:space="preserve" font-family="Exo2.0-BoldItalic,Exo 2.0" font-style="italic" font-weight="bold" font-size="72.0" fill="#FF9B00" transform="matrix(1.00, 0.00, -0.00, -1.00, 1336.2, 884.7)">X</text><text xml:space="preserve" font-family="Exo2.0-BoldItalic,Exo 2.0" font-style="italic" font-weight="bold" font-size="72.0" fill="#FF9B00" transform="matrix(1.00, 0.00, -0.00, -1.00, 1382.1, 884.7)">?</text><text xml:space="preserve" font-family="Exo2.0-Black,Exo 2.0" font-weight="bold" font-size="90.0" fill="#1F96BC" transform="matrix(1.00, 0.00, -0.00, -1.00, 292.4, 634.2)">F</text><text xml:space="preserve" font-family="Exo2.0-Black,Exo 2.0" font-weight="bold" font-size="90.0" fill="#1F96BC" transform="matrix(1.00, 0.00, -0.00, -1.00, 340.5, 634.2)">A</text><text xml:space="preserve" font-family="Exo2.0-Black,Exo 2.0" font-weight="bold" font-size="90.0" fill="#1F96BC" transform="matrix(1.00, 0.00, -0.00, -1.00, 402.0, 634.2)">S</text><text xml:space="preserve" font-family="Exo2.0-Black,Exo 2.0" font-weight="bold" font-size="90.0" fill="#1F96BC" transform="matrix(1.00, 0.00, -0.00, -1.00, 456.9, 634.2)">T</text><text xml:space="preserve" font-family="Exo2.0-Black,Exo 2.0" font-weight="bold" font-size="90.0" fill="#1F96BC" transform="matrix(1.00, 0.00, -0.00, -1.00, 513.0, 634.2)">E</text><text xml:space="preserve" font-family="Exo2.0-Black,Exo 2.0" font-weight="bold" font-size="90.0" fill="#1F96BC" transform="matrix(1.00, 0.00, -0.00, -1.00, 566.6, 634.2)">R</text><text xml:space="preserve" font-family="Exo2.0-Black,Exo 2.0" font-weight="bold" font-size="90.0" fill="#1F96BC" transform="matrix(1.00, 0.00, -0.00, -1.00, 627.4, 634.2)"> </text><text xml:space="preserve" font-family="Exo2.0-Regular,Exo 2.0" font-size="50.0" fill="#5F5F5F" transform="matrix(1.00, 0.00, -0.00, -1.00, 132.5, 568.1)">O</text><text xml:space="preserve" font-family="Exo2.0-Regular,Exo 2.0" font-size="50.0" fill="#5F5F5F" transform="matrix(1.00, 0.00, -0.00, -1.00, 165.9, 568.1)">P</text><text xml:space="preserve" font-family="Exo2.0-Regular,Exo 2.0" font-size="50.0" fill="#5F5F5F" transform="matrix(1.00, 0.00, -0.00, -1.00, 195.4, 568.1)">T</text><text xml:space="preserve" font-family="Exo2.0-Regular,Exo 2.0" font-size="50.0" fill="#5F5F5F" transform="matrix(1.00, 0.00, -0.00, -1.00, 224.4, 568.1)">I</text><text xml:space="preserve" font-family="Exo2.0-Regular,Exo 2.0" font-size="50.0" fill="#5F5F5F" transform="matrix(1.00, 0.00, -0.00, -1.00, 237.5, 568.1)">M</text><text xml:space="preserve" font-family="Exo2.0-Regular,Exo 2.0" font-size="50.0" fill="#5F5F5F" transform="matrix(1.00, 0.00, -0.00, -1.00, 281.4, 568.1)">I</text><text xml:space="preserve" font-family="Exo2.0-Regular,Exo 2.0" font-size="50.0" fill="#5F5F5F" transform="matrix(1.00, 0.00, -0.00, -1.00, 294.5, 568.1)">Z</text><text xml:space="preserve" font-family="Exo2.0-Regular,Exo 2.0" font-size="50.0" fill="#5F5F5F" transform="matrix(1.00, 0.00, -0.00, -1.00, 322.8, 568.1)">E</text><text xml:space="preserve" font-family="Exo2.0-Regular,Exo 2.0" font-size="50.0" fill="#5F5F5F" transform="matrix(1.00, 0.00, -0.00, -1.00, 350.8, 568.1)">D</text><text xml:space="preserve" font-family="Exo2.0-Regular,Exo 2.0" font-size="50.0" fill="#5F5F5F" transform="matrix(1.00, 0.00, -0.00, -1.00, 384.0, 568.1)"> </text><text xml:space="preserve" font-family="Exo2.0-Regular,Exo 2.0" font-size="50.0" fill="#5F5F5F" transform="matrix(1.00, 0.00, -0.00, -1.00, 395.1, 568.1)">O</text><text xml:space="preserve" font-family="Exo2.0-Regular,Exo 2.0" font-size="50.0" fill="#5F5F5F" transform="matrix(1.00, 0.00, -0.00, -1.00, 428.5, 568.1)">N</text><text xml:space="preserve" font-family="Exo2.0-Regular,Exo 2.0" font-size="50.0" fill="#5F5F5F" transform="matrix(1.00, 0.00, -0.00, -1.00, 463.8, 568.1)"> </text><text xml:space="preserve" font-family="Exo2.0-Regular,Exo 2.0" font-size="50.0" fill="#5F5F5F" transform="matrix(1.00, 0.00, -0.00, -1.00, 474.9, 568.1)">C</text><text xml:space="preserve" font-family="Exo2.0-Regular,Exo 2.0" font-size="50.0" fill="#5F5F5F" transform="matrix(1.00, 0.00, -0.00, -1.00, 502.9, 568.1)">O</text><text xml:space="preserve" font-family="Exo2.0-Regular,Exo 2.0" font-size="50.0" fill="#5F5F5F" transform="matrix(1.00, 0.00, -0.00, -1.00, 536.3, 568.1)">M</text><text xml:space="preserve" font-family="Exo2.0-Regular,Exo 2.0" font-size="50.0" fill="#5F5F5F" transform="matrix(1.00, 0.00, -0.00, -1.00, 580.1, 568.1)">P</text><text xml:space="preserve" font-family="Exo2.0-Regular,Exo 2.0" font-size="50.0" fill="#5F5F5F" transform="matrix(1.00, 0.00, -0.00, -1.00, 609.6, 568.1)">I</text><text xml:space="preserve" font-family="Exo2.0-Regular,Exo 2.0" font-size="50.0" fill="#5F5F5F" transform="matrix(1.00, 0.00, -0.00, -1.00, 622.7, 568.1)">L</text><text xml:space="preserve" font-family="Exo2.0-Regular,Exo 2.0" font-size="50.0" fill="#5F5F5F" transform="matrix(1.00, 0.00, -0.00, -1.00, 648.4, 568.1)">A</text><text xml:space="preserve" font-family="Exo2.0-Regular,Exo 2.0" font-size="50.0" fill="#5F5F5F" transform="matrix(1.00, 0.00, -0.00, -1.00, 676.6, 568.1)">T</text><text xml:space="preserve" font-family="Exo2.0-Regular,Exo 2.0" font-size="50.0" fill="#5F5F5F" transform="matrix(1.00, 0.00, -0.00, -1.00, 705.6, 568.1)">I</text><text xml:space="preserve" font-family="Exo2.0-Regular,Exo 2.0" font-size="50.0" fill="#5F5F5F" transform="matrix(1.00, 0.00, -0.00, -1.00, 718.7, 568.1)">O</text><text xml:space="preserve" font-family="Exo2.0-Regular,Exo 2.0" font-size="50.0" fill="#5F5F5F" transform="matrix(1.00, 0.00, -0.00, -1.00, 752.1, 568.1)">N</text><text xml:space="preserve" font-family="Exo2.0-Black,Exo 2.0" font-weight="bold" font-size="90.0" fill="#1F96BC" transform="matrix(1.00, 0.00, -0.00, -1.00, 1291.7, 634.2)">S</text><text xml:space="preserve" font-family="Exo2.0-Black,Exo 2.0" font-weight="bold" font-size="90.0" fill="#1F96BC" transform="matrix(1.00, 0.00, -0.00, -1.00, 1346.6, 634.2)">A</text><text xml:space="preserve" font-family="Exo2.0-Black,Exo 2.0" font-weight="bold" font-size="90.0" fill="#1F96BC" transform="matrix(1.00, 0.00, -0.00, -1.00, 1408.0, 634.2)">F</text><text xml:space="preserve" font-family="Exo2.0-Black,Exo 2.0" font-weight="bold" font-size="90.0" fill="#1F96BC" transform="matrix(1.00, 0.00, -0.00, -1.00, 1459.7, 634.2)">E</text><text xml:space="preserve" font-family="Exo2.0-Black,Exo 2.0" font-weight="bold" font-size="90.0" fill="#1F96BC" transform="matrix(1.00, 0.00, -0.00, -1.00, 1513.3, 634.2)">R</text><text xml:space="preserve" font-family="Exo2.0-Black,Exo 2.0" font-weight="bold" font-size="90.0" fill="#1F96BC" transform="matrix(1.00, 0.00, -0.00, -1.00, 1574.2, 634.2)"> </text><text xml:space="preserve" font-family="Exo2.0-Regular,Exo 2.0" font-size="50.0" fill="#5F5F5F" transform="matrix(1.00, 0.00, -0.00, -1.00, 1039.7, 568.1)">S</text><text xml:space="preserve" font-family="Exo2.0-Regular,Exo 2.0" font-size="50.0" fill="#5F5F5F" transform="matrix(1.00, 0.00, -0.00, -1.00, 1067.7, 568.1)">T</text><text xml:space="preserve" font-family="Exo2.0-Regular,Exo 2.0" font-size="50.0" fill="#5F5F5F" transform="matrix(1.00, 0.00, -0.00, -1.00, 1093.8, 568.1)">A</text><text xml:space="preserve" font-family="Exo2.0-Regular,Exo 2.0" font-size="50.0" fill="#5F5F5F" transform="matrix(1.00, 0.00, -0.00, -1.00, 1122.0, 568.1)">T</text><text xml:space="preserve" font-family="Exo2.0-Regular,Exo 2.0" font-size="50.0" fill="#5F5F5F" transform="matrix(1.00, 0.00, -0.00, -1.00, 1151.0, 568.1)">I</text><text xml:space="preserve" font-family="Exo2.0-Regular,Exo 2.0" font-size="50.0" fill="#5F5F5F" transform="matrix(1.00, 0.00, -0.00, -1.00, 1164.1, 568.1)">C</text><text xml:space="preserve" font-family="Exo2.0-Regular,Exo 2.0" font-size="50.0" fill="#5F5F5F" transform="matrix(1.00, 0.00, -0.00, -1.00, 1192.6, 568.1)">A</text><text xml:space="preserve" font-family="Exo2.0-Regular,Exo 2.0" font-size="50.0" fill="#5F5F5F" transform="matrix(1.00, 0.00, -0.00, -1.00, 1223.7, 568.1)">L</text><text xml:space="preserve" font-family="Exo2.0-Regular,Exo 2.0" font-size="50.0" fill="#5F5F5F" transform="matrix(1.00, 0.00, -0.00, -1.00, 1249.4, 568.1)">L</text><text xml:space="preserve" font-family="Exo2.0-Regular,Exo 2.0" font-size="50.0" fill="#5F5F5F" transform="matrix(1.00, 0.00, -0.00, -1.00, 1270.6, 568.1)">Y</text><text xml:space="preserve" font-family="Exo2.0-Regular,Exo 2.0" font-size="50.0" fill="#5F5F5F" transform="matrix(1.00, 0.00, -0.00, -1.00, 1297.7, 568.1)"> </text><text xml:space="preserve" font-family="Exo2.0-Regular,Exo 2.0" font-size="50.0" fill="#5F5F5F" transform="matrix(1.00, 0.00, -0.00, -1.00, 1307.7, 568.1)">T</text><text xml:space="preserve" font-family="Exo2.0-Regular,Exo 2.0" font-size="50.0" fill="#5F5F5F" transform="matrix(1.00, 0.00, -0.00, -1.00, 1336.7, 568.1)">Y</text><text xml:space="preserve" font-family="Exo2.0-Regular,Exo 2.0" font-size="50.0" fill="#5F5F5F" transform="matrix(1.00, 0.00, -0.00, -1.00, 1365.2, 568.1)">P</text><text xml:space="preserve" font-family="Exo2.0-Regular,Exo 2.0" font-size="50.0" fill="#5F5F5F" transform="matrix(1.00, 0.00, -0.00, -1.00, 1394.7, 568.1)">E</text><text xml:space="preserve" font-family="Exo2.0-Regular,Exo 2.0" font-size="50.0" fill="#5F5F5F" transform="matrix(1.00, 0.00, -0.00, -1.00, 1422.7, 568.1)">D</text><text xml:space="preserve" font-family="Exo2.0-Regular,Exo 2.0" font-size="50.0" fill="#5F5F5F" transform="matrix(1.00, 0.00, -0.00, -1.00, 1455.9, 568.1)"> </text><text xml:space="preserve" font-family="Exo2.0-Regular,Exo 2.0" font-size="50.0" fill="#5F5F5F" transform="matrix(1.00, 0.00, -0.00, -1.00, 1465.8, 568.1)">A</text><text xml:space="preserve" font-family="Exo2.0-Regular,Exo 2.0" font-size="50.0" fill="#5F5F5F" transform="matrix(1.00, 0.00, -0.00, -1.00, 1496.9, 568.1)">N</text><text xml:space="preserve" font-family="Exo2.0-Regular,Exo 2.0" font-size="50.0" fill="#5F5F5F" transform="matrix(1.00, 0.00, -0.00, -1.00, 1532.2, 568.1)">D</text><text xml:space="preserve" font-family="Exo2.0-Regular,Exo 2.0" font-size="50.0" fill="#5F5F5F" transform="matrix(1.00, 0.00, -0.00, -1.00, 1565.4, 568.1)"> </text><text xml:space="preserve" font-family="Exo2.0-Regular,Exo 2.0" font-size="50.0" fill="#5F5F5F" transform="matrix(1.00, 0.00, -0.00, -1.00, 1575.4, 568.1)">T</text><text xml:space="preserve" font-family="Exo2.0-Regular,Exo 2.0" font-size="50.0" fill="#5F5F5F" transform="matrix(1.00, 0.00, -0.00, -1.00, 1604.4, 568.1)">Y</text><text xml:space="preserve" font-family="Exo2.0-Regular,Exo 2.0" font-size="50.0" fill="#5F5F5F" transform="matrix(1.00, 0.00, -0.00, -1.00, 1632.9, 568.1)">P</text><text xml:space="preserve" font-family="Exo2.0-Regular,Exo 2.0" font-size="50.0" fill="#5F5F5F" transform="matrix(1.00, 0.00, -0.00, -1.00, 1662.4, 568.1)">E</text><text xml:space="preserve" font-family="Exo2.0-Regular,Exo 2.0" font-size="50.0" fill="#5F5F5F" transform="matrix(1.00, 0.00, -0.00, -1.00, 1690.2, 568.1)">-</text><text xml:space="preserve" font-family="Exo2.0-Regular,Exo 2.0" font-size="50.0" fill="#5F5F5F" transform="matrix(1.00, 0.00, -0.00, -1.00, 1712.0, 568.1)">S</text><text xml:space="preserve" font-family="Exo2.0-Regular,Exo 2.0" font-size="50.0" fill="#5F5F5F" transform="matrix(1.00, 0.00, -0.00, -1.00, 1740.1, 568.1)">A</text><text xml:space="preserve" font-family="Exo2.0-Regular,Exo 2.0" font-size="50.0" fill="#5F5F5F" transform="matrix(1.00, 0.00, -0.00, -1.00, 1771.2, 568.1)">F</text><text xml:space="preserve" font-family="Exo2.0-Regular,Exo 2.0" font-size="50.0" fill="#5F5F5F" transform="matrix(1.00, 0.00, -0.00, -1.00, 1798.1, 568.1)">E</text><text xml:space="preserve" font-family="Exo2.0-Black,Exo 2.0" font-weight="bold" font-size="90.0" fill="#1F96BC" transform="matrix(1.00, 0.00, -0.00, -1.00, 803.3, 334.2)">E</text><text xml:space="preserve" font-family="Exo2.0-Black,Exo 2.0" font-weight="bold" font-size="90.0" fill="#1F96BC" transform="matrix(1.00, 0.00, -0.00, -1.00, 857.0, 334.2)">A</text><text xml:space="preserve" font-family="Exo2.0-Black,Exo 2.0" font-weight="bold" font-size="90.0" fill="#1F96BC" transform="matrix(1.00, 0.00, -0.00, -1.00, 918.4, 334.2)">S</text><text xml:space="preserve" font-family="Exo2.0-Black,Exo 2.0" font-weight="bold" font-size="90.0" fill="#1F96BC" transform="matrix(1.00, 0.00, -0.00, -1.00, 973.3, 334.2)">I</text><text xml:space="preserve" font-family="Exo2.0-Black,Exo 2.0" font-weight="bold" font-size="90.0" fill="#1F96BC" transform="matrix(1.00, 0.00, -0.00, -1.00, 1002.2, 334.2)">E</text><text xml:space="preserve" font-family="Exo2.0-Black,Exo 2.0" font-weight="bold" font-size="90.0" fill="#1F96BC" transform="matrix(1.00, 0.00, -0.00, -1.00, 1055.8, 334.2)">R</text><text xml:space="preserve" font-family="Exo2.0-Black,Exo 2.0" font-weight="bold" font-size="90.0" fill="#1F96BC" transform="matrix(1.00, 0.00, -0.00, -1.00, 1116.7, 334.2)"> </text><text xml:space="preserve" font-family="Exo2.0-Regular,Exo 2.0" font-size="50.0" fill="#5F5F5F" transform="matrix(1.00, 0.00, -0.00, -1.00, 516.6, 268.1)">S</text><text xml:space="preserve" font-family="Exo2.0-Regular,Exo 2.0" font-size="50.0" fill="#5F5F5F" transform="matrix(1.00, 0.00, -0.00, -1.00, 544.7, 268.1)">O</text><text xml:space="preserve" font-family="Exo2.0-Regular,Exo 2.0" font-size="50.0" fill="#5F5F5F" transform="matrix(1.00, 0.00, -0.00, -1.00, 578.1, 268.1)">L</text><text xml:space="preserve" font-family="Exo2.0-Regular,Exo 2.0" font-size="50.0" fill="#5F5F5F" transform="matrix(1.00, 0.00, -0.00, -1.00, 603.8, 268.1)">I</text><text xml:space="preserve" font-family="Exo2.0-Regular,Exo 2.0" font-size="50.0" fill="#5F5F5F" transform="matrix(1.00, 0.00, -0.00, -1.00, 616.9, 268.1)">D</text><text xml:space="preserve" font-family="Exo2.0-Regular,Exo 2.0" font-size="50.0" fill="#5F5F5F" transform="matrix(1.00, 0.00, -0.00, -1.00, 650.1, 268.1)"> </text><text xml:space="preserve" font-family="Exo2.0-Regular,Exo 2.0" font-size="50.0" fill="#5F5F5F" transform="matrix(1.00, 0.00, -0.00, -1.00, 661.2, 268.1)">C</text><text xml:space="preserve" font-family="Exo2.0-Regular,Exo 2.0" font-size="50.0" fill="#5F5F5F" transform="matrix(1.00, 0.00, -0.00, -1.00, 689.8, 268.1)">L</text><text xml:space="preserve" font-family="Exo2.0-Regular,Exo 2.0" font-size="50.0" fill="#5F5F5F" transform="matrix(1.00, 0.00, -0.00, -1.00, 715.5, 268.1)">A</text><text xml:space="preserve" font-family="Exo2.0-Regular,Exo 2.0" font-size="50.0" fill="#5F5F5F" transform="matrix(1.00, 0.00, -0.00, -1.00, 746.5, 268.1)">S</text><text xml:space="preserve" font-family="Exo2.0-Regular,Exo 2.0" font-size="50.0" fill="#5F5F5F" transform="matrix(1.00, 0.00, -0.00, -1.00, 774.6, 268.1)">S</text><text xml:space="preserve" font-family="Exo2.0-Regular,Exo 2.0" font-size="50.0" fill="#5F5F5F" transform="matrix(1.00, 0.00, -0.00, -1.00, 802.6, 268.1)"> </text><text xml:space="preserve" font-family="Exo2.0-Regular,Exo 2.0" font-size="50.0" fill="#5F5F5F" transform="matrix(1.00, 0.00, -0.00, -1.00, 813.8, 268.1)">S</text><text xml:space="preserve" font-family="Exo2.0-Regular,Exo 2.0" font-size="50.0" fill="#5F5F5F" transform="matrix(1.00, 0.00, -0.00, -1.00, 841.6, 268.1)">Y</text><text xml:space="preserve" font-family="Exo2.0-Regular,Exo 2.0" font-size="50.0" fill="#5F5F5F" transform="matrix(1.00, 0.00, -0.00, -1.00, 869.9, 268.1)">S</text><text xml:space="preserve" font-family="Exo2.0-Regular,Exo 2.0" font-size="50.0" fill="#5F5F5F" transform="matrix(1.00, 0.00, -0.00, -1.00, 898.0, 268.1)">T</text><text xml:space="preserve" font-family="Exo2.0-Regular,Exo 2.0" font-size="50.0" fill="#5F5F5F" transform="matrix(1.00, 0.00, -0.00, -1.00, 927.0, 268.1)">E</text><text xml:space="preserve" font-family="Exo2.0-Regular,Exo 2.0" font-size="50.0" fill="#5F5F5F" transform="matrix(1.00, 0.00, -0.00, -1.00, 955.0, 268.1)">M</text><text xml:space="preserve" font-family="Exo2.0-Regular,Exo 2.0" font-size="50.0" fill="#5F5F5F" transform="matrix(1.00, 0.00, -0.00, -1.00, 998.9, 268.1)"> </text><text xml:space="preserve" font-family="Exo2.0-Regular,Exo 2.0" font-size="50.0" fill="#5F5F5F" transform="matrix(1.00, 0.00, -0.00, -1.00, 1008.8, 268.1)">A</text><text xml:space="preserve" font-family="Exo2.0-Regular,Exo 2.0" font-size="50.0" fill="#5F5F5F" transform="matrix(1.00, 0.00, -0.00, -1.00, 1039.9, 268.1)">N</text><text xml:space="preserve" font-family="Exo2.0-Regular,Exo 2.0" font-size="50.0" fill="#5F5F5F" transform="matrix(1.00, 0.00, -0.00, -1.00, 1075.2, 268.1)">D</text><text xml:space="preserve" font-family="Exo2.0-Regular,Exo 2.0" font-size="50.0" fill="#5F5F5F" transform="matrix(1.00, 0.00, -0.00, -1.00, 1108.3, 268.1)"> </text><text xml:space="preserve" font-family="Exo2.0-Regular,Exo 2.0" font-size="50.0" fill="#5F5F5F" transform="matrix(1.00, 0.00, -0.00, -1.00, 1119.5, 268.1)">F</text><text xml:space="preserve" font-family="Exo2.0-Regular,Exo 2.0" font-size="50.0" fill="#5F5F5F" transform="matrix(1.00, 0.00, -0.00, -1.00, 1143.9, 268.1)">A</text><text xml:space="preserve" font-family="Exo2.0-Regular,Exo 2.0" font-size="50.0" fill="#5F5F5F" transform="matrix(1.00, 0.00, -0.00, -1.00, 1175.0, 268.1)">M</text><text xml:space="preserve" font-family="Exo2.0-Regular,Exo 2.0" font-size="50.0" fill="#5F5F5F" transform="matrix(1.00, 0.00, -0.00, -1.00, 1218.9, 268.1)">I</text><text xml:space="preserve" font-family="Exo2.0-Regular,Exo 2.0" font-size="50.0" fill="#5F5F5F" transform="matrix(1.00, 0.00, -0.00, -1.00, 1232.0, 268.1)">L</text><text xml:space="preserve" font-family="Exo2.0-Regular,Exo 2.0" font-size="50.0" fill="#5F5F5F" transform="matrix(1.00, 0.00, -0.00, -1.00, 1257.7, 268.1)">I</text><text xml:space="preserve" font-family="Exo2.0-Regular,Exo 2.0" font-size="50.0" fill="#5F5F5F" transform="matrix(1.00, 0.00, -0.00, -1.00, 1270.8, 268.1)">A</text><text xml:space="preserve" font-family="Exo2.0-Regular,Exo 2.0" font-size="50.0" fill="#5F5F5F" transform="matrix(1.00, 0.00, -0.00, -1.00, 1301.9, 268.1)">R</text><text xml:space="preserve" font-family="Exo2.0-Regular,Exo 2.0" font-size="50.0" fill="#5F5F5F" transform="matrix(1.00, 0.00, -0.00, -1.00, 1332.8, 268.1)">I</text><text xml:space="preserve" font-family="Exo2.0-Regular,Exo 2.0" font-size="50.0" fill="#5F5F5F" transform="matrix(1.00, 0.00, -0.00, -1.00, 1345.9, 268.1)">T</text><text xml:space="preserve" font-family="Exo2.0-Regular,Exo 2.0" font-size="50.0" fill="#5F5F5F" transform="matrix(1.00, 0.00, -0.00, -1.00, 1374.9, 268.1)">Y</text></g></svg>