<?xml version="1.0" encoding="UTF-8" standalone="no"?><svg xmlns="http://www.w3.org/2000/svg" xmlns:xlink="http://www.w3.org/1999/xlink" clip-rule="evenodd" stroke-miterlimit="10" viewBox="0 0 1920 1080"><desc>SVG generated by Keynote</desc><defs></defs><g transform="matrix(1.00, 0.00, -0.00, -1.00, 0.0, 1080.0)"><path d="M 0.0 1080.0 L 1920.0 1080.0 L 1920.0 0.0 L 0.0 0.0 Z M 0.0 1080.0 " fill="#1F97BD"></path><text xml:space="preserve" font-family="Exo2.0-ExtraBold,Exo 2.0" font-weight="bold" font-size="112.0" fill="#E9E9E9" transform="matrix(1.00, 0.00, -0.00, -1.00, 549.2, 492.7)">I</text><text xml:space="preserve" font-family="Exo2.0-ExtraBold,Exo 2.0" font-weight="bold" font-size="112.0" fill="#E9E9E9" transform="matrix(1.00, 0.00, -0.00, -1.00, 583.7, 492.7)">N</text><text xml:space="preserve" font-family="Exo2.0-ExtraBold,Exo 2.0" font-weight="bold" font-size="112.0" fill="#E9E9E9" transform="matrix(1.00, 0.00, -0.00, -1.00, 665.6, 492.7)">T</text><text xml:space="preserve" font-family="Exo2.0-ExtraBold,Exo 2.0" font-weight="bold" font-size="112.0" fill="#E9E9E9" transform="matrix(1.00, 0.00, -0.00, -1.00, 734.2, 492.7)">R</text><text xml:space="preserve" font-family="Exo2.0-ExtraBold,Exo 2.0" font-weight="bold" font-size="112.0" fill="#E9E9E9" transform="matrix(1.00, 0.00, -0.00, -1.00, 807.8, 492.7)">O</text><text xml:space="preserve" font-family="Exo2.0-ExtraBold,Exo 2.0" font-weight="bold" font-size="112.0" fill="#E9E9E9" transform="matrix(1.00, 0.00, -0.00, -1.00, 885.9, 492.7)">D</text><text xml:space="preserve" font-family="Exo2.0-ExtraBold,Exo 2.0" font-weight="bold" font-size="112.0" fill="#E9E9E9" transform="matrix(1.00, 0.00, -0.00, -1.00, 963.2, 492.7)">U</text><text xml:space="preserve" font-family="Exo2.0-ExtraBold,Exo 2.0" font-weight="bold" font-size="112.0" fill="#E9E9E9" transform="matrix(1.00, 0.00, -0.00, -1.00, 1041.0, 492.7)">C</text><text xml:space="preserve" font-family="Exo2.0-ExtraBold,Exo 2.0" font-weight="bold" font-size="112.0" fill="#E9E9E9" transform="matrix(1.00, 0.00, -0.00, -1.00, 1107.7, 492.7)">T</text><text xml:space="preserve" font-family="Exo2.0-ExtraBold,Exo 2.0" font-weight="bold" font-size="112.0" fill="#E9E9E9" transform="matrix(1.00, 0.00, -0.00, -1.00, 1176.4, 492.7)">I</text><text xml:space="preserve" font-family="Exo2.0-ExtraBold,Exo 2.0" font-weight="bold" font-size="112.0" fill="#E9E9E9" transform="matrix(1.00, 0.00, -0.00, -1.00, 1210.9, 492.7)">O</text><text xml:space="preserve" font-family="Exo2.0-ExtraBold,Exo 2.0" font-weight="bold" font-size="112.0" fill="#E9E9E9" transform="matrix(1.00, 0.00, -0.00, -1.00, 1288.9, 492.7)">N</text></g></svg>