<?xml version="1.0" encoding="UTF-8" standalone="no"?><svg xmlns="http://www.w3.org/2000/svg" xmlns:xlink="http://www.w3.org/1999/xlink" clip-rule="evenodd" stroke-miterlimit="10" viewBox="0 0 1920 1080"><desc>SVG generated by Keynote</desc><defs></defs><g transform="matrix(1.00, 0.00, -0.00, -1.00, 0.0, 1080.0)"><path d="M 0.0 1080.0 L 1920.0 1080.0 L 1920.0 0.0 L 0.0 0.0 Z M 0.0 1080.0 " fill="#E9E9E9"></path><text xml:space="preserve" font-family="Exo2.0-ExtraBold,Exo 2.0" font-weight="bold" font-size="112.0" fill="#5F5F5F" transform="matrix(1.00, 0.00, -0.00, -1.00, 295.3, 608.6)">S</text><text xml:space="preserve" font-family="Exo2.0-ExtraBold,Exo 2.0" font-weight="bold" font-size="112.0" fill="#5F5F5F" transform="matrix(1.00, 0.00, -0.00, -1.00, 362.1, 608.6)">I</text><text xml:space="preserve" font-family="Exo2.0-ExtraBold,Exo 2.0" font-weight="bold" font-size="112.0" fill="#5F5F5F" transform="matrix(1.00, 0.00, -0.00, -1.00, 396.6, 608.6)">X</text><text xml:space="preserve" font-family="Exo2.0-ExtraBold,Exo 2.0" font-weight="bold" font-size="112.0" fill="#5F5F5F" transform="matrix(1.00, 0.00, -0.00, -1.00, 470.7, 608.6)"> </text><text xml:space="preserve" font-family="Exo2.0-ExtraBold,Exo 2.0" font-weight="bold" font-size="112.0" fill="#5F5F5F" transform="matrix(1.00, 0.00, -0.00, -1.00, 494.5, 608.6)">L</text><text xml:space="preserve" font-family="Exo2.0-ExtraBold,Exo 2.0" font-weight="bold" font-size="112.0" fill="#5F5F5F" transform="matrix(1.00, 0.00, -0.00, -1.00, 555.7, 608.6)">E</text><text xml:space="preserve" font-family="Exo2.0-ExtraBold,Exo 2.0" font-weight="bold" font-size="112.0" fill="#5F5F5F" transform="matrix(1.00, 0.00, -0.00, -1.00, 621.4, 608.6)">S</text><text xml:space="preserve" font-family="Exo2.0-ExtraBold,Exo 2.0" font-weight="bold" font-size="112.0" fill="#5F5F5F" transform="matrix(1.00, 0.00, -0.00, -1.00, 688.3, 608.6)">S</text><text xml:space="preserve" font-family="Exo2.0-ExtraBold,Exo 2.0" font-weight="bold" font-size="112.0" fill="#5F5F5F" transform="matrix(1.00, 0.00, -0.00, -1.00, 755.2, 608.6)">O</text><text xml:space="preserve" font-family="Exo2.0-ExtraBold,Exo 2.0" font-weight="bold" font-size="112.0" fill="#5F5F5F" transform="matrix(1.00, 0.00, -0.00, -1.00, 833.2, 608.6)">N</text><text xml:space="preserve" font-family="Exo2.0-ExtraBold,Exo 2.0" font-weight="bold" font-size="112.0" fill="#5F5F5F" transform="matrix(1.00, 0.00, -0.00, -1.00, 915.1, 608.6)">S</text><text xml:space="preserve" font-family="Exo2.0-ExtraBold,Exo 2.0" font-weight="bold" font-size="112.0" fill="#5F5F5F" transform="matrix(1.00, 0.00, -0.00, -1.00, 982.0, 608.6)"> </text><text xml:space="preserve" font-family="Exo2.0-ExtraBold,Exo 2.0" font-weight="bold" font-size="112.0" fill="#5F5F5F" transform="matrix(1.00, 0.00, -0.00, -1.00, 1005.8, 608.6)">I</text><text xml:space="preserve" font-family="Exo2.0-ExtraBold,Exo 2.0" font-weight="bold" font-size="112.0" fill="#5F5F5F" transform="matrix(1.00, 0.00, -0.00, -1.00, 1040.3, 608.6)">N</text><text xml:space="preserve" font-family="Exo2.0-ExtraBold,Exo 2.0" font-weight="bold" font-size="112.0" fill="#5F5F5F" transform="matrix(1.00, 0.00, -0.00, -1.00, 1122.2, 608.6)"> </text><text xml:space="preserve" font-family="Exo2.0-ExtraBold,Exo 2.0" font-weight="bold" font-size="112.0" fill="#5F5F5F" transform="matrix(1.00, 0.00, -0.00, -1.00, 1146.0, 608.6)">R</text><text xml:space="preserve" font-family="Exo2.0-ExtraBold,Exo 2.0" font-weight="bold" font-size="112.0" fill="#5F5F5F" transform="matrix(1.00, 0.00, -0.00, -1.00, 1220.1, 608.6)">E</text><text xml:space="preserve" font-family="Exo2.0-ExtraBold,Exo 2.0" font-weight="bold" font-size="112.0" fill="#5F5F5F" transform="matrix(1.00, 0.00, -0.00, -1.00, 1285.8, 608.6)">A</text><text xml:space="preserve" font-family="Exo2.0-ExtraBold,Exo 2.0" font-weight="bold" font-size="112.0" fill="#5F5F5F" transform="matrix(1.00, 0.00, -0.00, -1.00, 1359.7, 608.6)">C</text><text xml:space="preserve" font-family="Exo2.0-ExtraBold,Exo 2.0" font-weight="bold" font-size="112.0" fill="#5F5F5F" transform="matrix(1.00, 0.00, -0.00, -1.00, 1426.5, 608.6)">T</text><text xml:space="preserve" font-family="Exo2.0-ExtraBold,Exo 2.0" font-weight="bold" font-size="112.0" fill="#5F5F5F" transform="matrix(1.00, 0.00, -0.00, -1.00, 1492.8, 608.6)"> </text><text xml:space="preserve" font-family="Exo2.0-ExtraBold,Exo 2.0" font-weight="bold" font-size="112.0" fill="#5F5F5F" transform="matrix(1.00, 0.00, -0.00, -1.00, 1514.4, 608.6)">J</text><text xml:space="preserve" font-family="Exo2.0-ExtraBold,Exo 2.0" font-weight="bold" font-size="112.0" fill="#5F5F5F" transform="matrix(1.00, 0.00, -0.00, -1.00, 1557.9, 608.6)">S</text><text xml:space="preserve" font-family="Exo2.0-Bold,Exo 2.0" font-weight="bold" font-size="72.0" fill="#8F8F8F" transform="matrix(1.00, 0.00, -0.00, -1.00, 797.1, 495.6)">L</text><text xml:space="preserve" font-family="Exo2.0-Bold,Exo 2.0" font-weight="bold" font-size="72.0" fill="#8F8F8F" transform="matrix(1.00, 0.00, -0.00, -1.00, 835.4, 495.6)">E</text><text xml:space="preserve" font-family="Exo2.0-Bold,Exo 2.0" font-weight="bold" font-size="72.0" fill="#8F8F8F" transform="matrix(1.00, 0.00, -0.00, -1.00, 876.9, 495.6)">S</text><text xml:space="preserve" font-family="Exo2.0-Bold,Exo 2.0" font-weight="bold" font-size="72.0" fill="#8F8F8F" transform="matrix(1.00, 0.00, -0.00, -1.00, 918.8, 495.6)">S</text><text xml:space="preserve" font-family="Exo2.0-Bold,Exo 2.0" font-weight="bold" font-size="72.0" fill="#8F8F8F" transform="matrix(1.00, 0.00, -0.00, -1.00, 960.7, 495.6)">O</text><text xml:space="preserve" font-family="Exo2.0-Bold,Exo 2.0" font-weight="bold" font-size="72.0" fill="#8F8F8F" transform="matrix(1.00, 0.00, -0.00, -1.00, 1010.0, 495.6)">N</text><text xml:space="preserve" font-family="Exo2.0-Bold,Exo 2.0" font-weight="bold" font-size="72.0" fill="#8F8F8F" transform="matrix(1.00, 0.00, -0.00, -1.00, 1062.0, 495.6)"> </text><text xml:space="preserve" font-family="Exo2.0-Bold,Exo 2.0" font-weight="bold" font-size="72.0" fill="#8F8F8F" transform="matrix(1.00, 0.00, -0.00, -1.00, 1077.6, 495.6)">0</text><text xml:space="preserve" font-family="Exo2.0-Bold,Exo 2.0" font-weight="bold" font-size="72.0" fill="#FF9B00" transform="matrix(1.00, 0.00, -0.00, -1.00, 232.4, 391.8)">I</text><text xml:space="preserve" font-family="Exo2.0-Bold,Exo 2.0" font-weight="bold" font-size="72.0" fill="#FF9B00" transform="matrix(1.00, 0.00, -0.00, -1.00, 253.5, 391.8)">N</text><text xml:space="preserve" font-family="Exo2.0-Bold,Exo 2.0" font-weight="bold" font-size="72.0" fill="#FF9B00" transform="matrix(1.00, 0.00, -0.00, -1.00, 305.4, 391.8)">T</text><text xml:space="preserve" font-family="Exo2.0-Bold,Exo 2.0" font-weight="bold" font-size="72.0" fill="#FF9B00" transform="matrix(1.00, 0.00, -0.00, -1.00, 348.7, 391.8)">R</text><text xml:space="preserve" font-family="Exo2.0-Bold,Exo 2.0" font-weight="bold" font-size="72.0" fill="#FF9B00" transform="matrix(1.00, 0.00, -0.00, -1.00, 394.9, 391.8)">O</text><text xml:space="preserve" font-family="Exo2.0-Bold,Exo 2.0" font-weight="bold" font-size="72.0" fill="#FF9B00" transform="matrix(1.00, 0.00, -0.00, -1.00, 444.1, 391.8)">D</text><text xml:space="preserve" font-family="Exo2.0-Bold,Exo 2.0" font-weight="bold" font-size="72.0" fill="#FF9B00" transform="matrix(1.00, 0.00, -0.00, -1.00, 493.1, 391.8)">U</text><text xml:space="preserve" font-family="Exo2.0-Bold,Exo 2.0" font-weight="bold" font-size="72.0" fill="#FF9B00" transform="matrix(1.00, 0.00, -0.00, -1.00, 542.1, 391.8)">C</text><text xml:space="preserve" font-family="Exo2.0-Bold,Exo 2.0" font-weight="bold" font-size="72.0" fill="#FF9B00" transform="matrix(1.00, 0.00, -0.00, -1.00, 584.3, 391.8)">T</text><text xml:space="preserve" font-family="Exo2.0-Bold,Exo 2.0" font-weight="bold" font-size="72.0" fill="#FF9B00" transform="matrix(1.00, 0.00, -0.00, -1.00, 627.6, 391.8)">I</text><text xml:space="preserve" font-family="Exo2.0-Bold,Exo 2.0" font-weight="bold" font-size="72.0" fill="#FF9B00" transform="matrix(1.00, 0.00, -0.00, -1.00, 648.6, 391.8)">O</text><text xml:space="preserve" font-family="Exo2.0-Bold,Exo 2.0" font-weight="bold" font-size="72.0" fill="#FF9B00" transform="matrix(1.00, 0.00, -0.00, -1.00, 697.8, 391.8)">N</text><text xml:space="preserve" font-family="Exo2.0-Bold,Exo 2.0" font-weight="bold" font-size="72.0" fill="#FF9B00" transform="matrix(1.00, 0.00, -0.00, -1.00, 749.8, 391.8)">,</text><text xml:space="preserve" font-family="Exo2.0-Bold,Exo 2.0" font-weight="bold" font-size="72.0" fill="#FF9B00" transform="matrix(1.00, 0.00, -0.00, -1.00, 767.3, 391.8)"> </text><text xml:space="preserve" font-family="Exo2.0-Bold,Exo 2.0" font-weight="bold" font-size="72.0" fill="#FF9B00" transform="matrix(1.00, 0.00, -0.00, -1.00, 781.6, 391.8)">J</text><text xml:space="preserve" font-family="Exo2.0-Bold,Exo 2.0" font-weight="bold" font-size="72.0" fill="#FF9B00" transform="matrix(1.00, 0.00, -0.00, -1.00, 808.2, 391.8)">S</text><text xml:space="preserve" font-family="Exo2.0-Bold,Exo 2.0" font-weight="bold" font-size="72.0" fill="#FF9B00" transform="matrix(1.00, 0.00, -0.00, -1.00, 850.1, 391.8)">X</text><text xml:space="preserve" font-family="Exo2.0-Bold,Exo 2.0" font-weight="bold" font-size="72.0" fill="#FF9B00" transform="matrix(1.00, 0.00, -0.00, -1.00, 896.2, 391.8)"> </text><text xml:space="preserve" font-family="Exo2.0-Bold,Exo 2.0" font-weight="bold" font-size="72.0" fill="#FF9B00" transform="matrix(1.00, 0.00, -0.00, -1.00, 910.2, 391.8)">A</text><text xml:space="preserve" font-family="Exo2.0-Bold,Exo 2.0" font-weight="bold" font-size="72.0" fill="#FF9B00" transform="matrix(1.00, 0.00, -0.00, -1.00, 957.0, 391.8)">N</text><text xml:space="preserve" font-family="Exo2.0-Bold,Exo 2.0" font-weight="bold" font-size="72.0" fill="#FF9B00" transform="matrix(1.00, 0.00, -0.00, -1.00, 1009.0, 391.8)">D</text><text xml:space="preserve" font-family="Exo2.0-Bold,Exo 2.0" font-weight="bold" font-size="72.0" fill="#FF9B00" transform="matrix(1.00, 0.00, -0.00, -1.00, 1057.9, 391.8)"> </text><text xml:space="preserve" font-family="Exo2.0-Bold,Exo 2.0" font-weight="bold" font-size="72.0" fill="#FF9B00" transform="matrix(1.00, 0.00, -0.00, -1.00, 1072.0, 391.8)">T</text><text xml:space="preserve" font-family="Exo2.0-Bold,Exo 2.0" font-weight="bold" font-size="72.0" fill="#FF9B00" transform="matrix(1.00, 0.00, -0.00, -1.00, 1115.2, 391.8)">H</text><text xml:space="preserve" font-family="Exo2.0-Bold,Exo 2.0" font-weight="bold" font-size="72.0" fill="#FF9B00" transform="matrix(1.00, 0.00, -0.00, -1.00, 1164.8, 391.8)">E</text><text xml:space="preserve" font-family="Exo2.0-Bold,Exo 2.0" font-weight="bold" font-size="72.0" fill="#FF9B00" transform="matrix(1.00, 0.00, -0.00, -1.00, 1206.2, 391.8)"> </text><text xml:space="preserve" font-family="Exo2.0-Bold,Exo 2.0" font-weight="bold" font-size="72.0" fill="#FF9B00" transform="matrix(1.00, 0.00, -0.00, -1.00, 1220.2, 391.8)">V</text><text xml:space="preserve" font-family="Exo2.0-Bold,Exo 2.0" font-weight="bold" font-size="72.0" fill="#FF9B00" transform="matrix(1.00, 0.00, -0.00, -1.00, 1266.0, 391.8)">I</text><text xml:space="preserve" font-family="Exo2.0-Bold,Exo 2.0" font-weight="bold" font-size="72.0" fill="#FF9B00" transform="matrix(1.00, 0.00, -0.00, -1.00, 1287.0, 391.8)">R</text><text xml:space="preserve" font-family="Exo2.0-Bold,Exo 2.0" font-weight="bold" font-size="72.0" fill="#FF9B00" transform="matrix(1.00, 0.00, -0.00, -1.00, 1332.9, 391.8)">T</text><text xml:space="preserve" font-family="Exo2.0-Bold,Exo 2.0" font-weight="bold" font-size="72.0" fill="#FF9B00" transform="matrix(1.00, 0.00, -0.00, -1.00, 1376.2, 391.8)">U</text><text xml:space="preserve" font-family="Exo2.0-Bold,Exo 2.0" font-weight="bold" font-size="72.0" fill="#FF9B00" transform="matrix(1.00, 0.00, -0.00, -1.00, 1424.6, 391.8)">A</text><text xml:space="preserve" font-family="Exo2.0-Bold,Exo 2.0" font-weight="bold" font-size="72.0" fill="#FF9B00" transform="matrix(1.00, 0.00, -0.00, -1.00, 1471.4, 391.8)">L</text><text xml:space="preserve" font-family="Exo2.0-Bold,Exo 2.0" font-weight="bold" font-size="72.0" fill="#FF9B00" transform="matrix(1.00, 0.00, -0.00, -1.00, 1508.1, 391.8)"> </text><text xml:space="preserve" font-family="Exo2.0-Bold,Exo 2.0" font-weight="bold" font-size="72.0" fill="#FF9B00" transform="matrix(1.00, 0.00, -0.00, -1.00, 1523.8, 391.8)">D</text><text xml:space="preserve" font-family="Exo2.0-Bold,Exo 2.0" font-weight="bold" font-size="72.0" fill="#FF9B00" transform="matrix(1.00, 0.00, -0.00, -1.00, 1572.7, 391.8)">O</text><text xml:space="preserve" font-family="Exo2.0-Bold,Exo 2.0" font-weight="bold" font-size="72.0" fill="#FF9B00" transform="matrix(1.00, 0.00, -0.00, -1.00, 1622.0, 391.8)">M</text></g></svg>