<?xml version="1.0" encoding="UTF-8" standalone="no"?><svg xmlns="http://www.w3.org/2000/svg" xmlns:xlink="http://www.w3.org/1999/xlink" clip-rule="evenodd" stroke-miterlimit="10" viewBox="0 0 1920 1080"><desc>SVG generated by Keynote</desc><defs></defs><g transform="matrix(1.00, 0.00, -0.00, -1.00, 0.0, 1080.0)"><path d="M 0.0 1080.0 L 1920.0 1080.0 L 1920.0 0.0 L 0.0 0.0 Z M 0.0 1080.0 " fill="#E9E9E9"></path><text xml:space="preserve" font-family="Exo2.0-Black,Exo 2.0" font-weight="bold" font-size="118.0" fill="#FF9900" transform="matrix(1.00, 0.00, -0.00, -1.00, 222.6, 603.5)">S</text><text xml:space="preserve" font-family="Exo2.0-Black,Exo 2.0" font-weight="bold" font-size="118.0" fill="#FF9900" transform="matrix(1.00, 0.00, -0.00, -1.00, 294.6, 603.5)">E</text><text xml:space="preserve" font-family="Exo2.0-Black,Exo 2.0" font-weight="bold" font-size="118.0" fill="#FF9900" transform="matrix(1.00, 0.00, -0.00, -1.00, 364.9, 603.5)">T</text><text xml:space="preserve" font-family="Exo2.0-Black,Exo 2.0" font-weight="bold" font-size="118.0" fill="#FF9900" transform="matrix(1.00, 0.00, -0.00, -1.00, 436.0, 603.5)"> </text><text xml:space="preserve" font-family="Exo2.0-Black,Exo 2.0" font-weight="bold" font-size="118.0" fill="#FF9900" transform="matrix(1.00, 0.00, -0.00, -1.00, 460.7, 603.5)">U</text><text xml:space="preserve" font-family="Exo2.0-Black,Exo 2.0" font-weight="bold" font-size="118.0" fill="#FF9900" transform="matrix(1.00, 0.00, -0.00, -1.00, 543.9, 603.5)">P</text><text xml:space="preserve" font-family="Exo2.0-Black,Exo 2.0" font-weight="bold" font-size="118.0" fill="#FF9900" transform="matrix(1.00, 0.00, -0.00, -1.00, 618.0, 603.5)"> </text><text xml:space="preserve" font-family="Exo2.0-Black,Exo 2.0" font-weight="bold" font-size="118.0" fill="#FF9900" transform="matrix(1.00, 0.00, -0.00, -1.00, 640.1, 603.5)">A</text><text xml:space="preserve" font-family="Exo2.0-Black,Exo 2.0" font-weight="bold" font-size="118.0" fill="#FF9900" transform="matrix(1.00, 0.00, -0.00, -1.00, 720.7, 603.5)">N</text><text xml:space="preserve" font-family="Exo2.0-Black,Exo 2.0" font-weight="bold" font-size="118.0" fill="#FF9900" transform="matrix(1.00, 0.00, -0.00, -1.00, 807.8, 603.5)"> </text><text xml:space="preserve" font-family="Exo2.0-Black,Exo 2.0" font-weight="bold" font-size="118.0" fill="#FF9900" transform="matrix(1.00, 0.00, -0.00, -1.00, 832.6, 603.5)">E</text><text xml:space="preserve" font-family="Exo2.0-Black,Exo 2.0" font-weight="bold" font-size="118.0" fill="#FF9900" transform="matrix(1.00, 0.00, -0.00, -1.00, 902.9, 603.5)">N</text><text xml:space="preserve" font-family="Exo2.0-Black,Exo 2.0" font-weight="bold" font-size="118.0" fill="#FF9900" transform="matrix(1.00, 0.00, -0.00, -1.00, 990.0, 603.5)">V</text><text xml:space="preserve" font-family="Exo2.0-Black,Exo 2.0" font-weight="bold" font-size="118.0" fill="#FF9900" transform="matrix(1.00, 0.00, -0.00, -1.00, 1069.0, 603.5)">I</text><text xml:space="preserve" font-family="Exo2.0-Black,Exo 2.0" font-weight="bold" font-size="118.0" fill="#FF9900" transform="matrix(1.00, 0.00, -0.00, -1.00, 1106.9, 603.5)">R</text><text xml:space="preserve" font-family="Exo2.0-Black,Exo 2.0" font-weight="bold" font-size="118.0" fill="#FF9900" transform="matrix(1.00, 0.00, -0.00, -1.00, 1186.1, 603.5)">O</text><text xml:space="preserve" font-family="Exo2.0-Black,Exo 2.0" font-weight="bold" font-size="118.0" fill="#FF9900" transform="matrix(1.00, 0.00, -0.00, -1.00, 1269.5, 603.5)">N</text><text xml:space="preserve" font-family="Exo2.0-Black,Exo 2.0" font-weight="bold" font-size="118.0" fill="#FF9900" transform="matrix(1.00, 0.00, -0.00, -1.00, 1356.6, 603.5)">M</text><text xml:space="preserve" font-family="Exo2.0-Black,Exo 2.0" font-weight="bold" font-size="118.0" fill="#FF9900" transform="matrix(1.00, 0.00, -0.00, -1.00, 1468.9, 603.5)">E</text><text xml:space="preserve" font-family="Exo2.0-Black,Exo 2.0" font-weight="bold" font-size="118.0" fill="#FF9900" transform="matrix(1.00, 0.00, -0.00, -1.00, 1539.3, 603.5)">N</text><text xml:space="preserve" font-family="Exo2.0-Black,Exo 2.0" font-weight="bold" font-size="118.0" fill="#FF9900" transform="matrix(1.00, 0.00, -0.00, -1.00, 1626.3, 603.5)">T</text><text xml:space="preserve" font-family="Exo2.0-Black,Exo 2.0" font-weight="bold" font-size="118.0" fill="#FF9900" transform="matrix(1.00, 0.00, -0.00, -1.00, 1697.4, 603.5)"> </text><text xml:space="preserve" font-family="Exo2.0-Black,Exo 2.0" font-weight="bold" font-size="118.0" fill="#FF9900" transform="matrix(1.00, 0.00, -0.00, -1.00, 185.0, 377.9)">B</text><text xml:space="preserve" font-family="Exo2.0-Black,Exo 2.0" font-weight="bold" font-size="118.0" fill="#FF9900" transform="matrix(1.00, 0.00, -0.00, -1.00, 262.9, 377.9)">U</text><text xml:space="preserve" font-family="Exo2.0-Black,Exo 2.0" font-weight="bold" font-size="118.0" fill="#FF9900" transform="matrix(1.00, 0.00, -0.00, -1.00, 346.0, 377.9)">I</text><text xml:space="preserve" font-family="Exo2.0-Black,Exo 2.0" font-weight="bold" font-size="118.0" fill="#FF9900" transform="matrix(1.00, 0.00, -0.00, -1.00, 383.9, 377.9)">L</text><text xml:space="preserve" font-family="Exo2.0-Black,Exo 2.0" font-weight="bold" font-size="118.0" fill="#FF9900" transform="matrix(1.00, 0.00, -0.00, -1.00, 449.6, 377.9)">D</text><text xml:space="preserve" font-family="Exo2.0-Black,Exo 2.0" font-weight="bold" font-size="118.0" fill="#FF9900" transform="matrix(1.00, 0.00, -0.00, -1.00, 532.4, 377.9)"> </text><text xml:space="preserve" font-family="Exo2.0-Black,Exo 2.0" font-weight="bold" font-size="118.0" fill="#FF9900" transform="matrix(1.00, 0.00, -0.00, -1.00, 554.4, 377.9)">A</text><text xml:space="preserve" font-family="Exo2.0-Black,Exo 2.0" font-weight="bold" font-size="118.0" fill="#FF9900" transform="matrix(1.00, 0.00, -0.00, -1.00, 632.3, 377.9)"> </text><text xml:space="preserve" font-family="Exo2.0-Black,Exo 2.0" font-weight="bold" font-size="118.0" fill="#FF9900" transform="matrix(1.00, 0.00, -0.00, -1.00, 657.1, 377.9)">H</text><text xml:space="preserve" font-family="Exo2.0-Black,Exo 2.0" font-weight="bold" font-size="118.0" fill="#FF9900" transform="matrix(1.00, 0.00, -0.00, -1.00, 741.3, 377.9)">E</text><text xml:space="preserve" font-family="Exo2.0-Black,Exo 2.0" font-weight="bold" font-size="118.0" fill="#FF9900" transform="matrix(1.00, 0.00, -0.00, -1.00, 811.7, 377.9)">L</text><text xml:space="preserve" font-family="Exo2.0-Black,Exo 2.0" font-weight="bold" font-size="118.0" fill="#FF9900" transform="matrix(1.00, 0.00, -0.00, -1.00, 877.4, 377.9)">L</text><text xml:space="preserve" font-family="Exo2.0-Black,Exo 2.0" font-weight="bold" font-size="118.0" fill="#FF9900" transform="matrix(1.00, 0.00, -0.00, -1.00, 942.3, 377.9)">O</text><text xml:space="preserve" font-family="Exo2.0-Black,Exo 2.0" font-weight="bold" font-size="118.0" fill="#FF9900" transform="matrix(1.00, 0.00, -0.00, -1.00, 1025.7, 377.9)"> </text><text xml:space="preserve" font-family="Exo2.0-Black,Exo 2.0" font-weight="bold" font-size="118.0" fill="#FF9900" transform="matrix(1.00, 0.00, -0.00, -1.00, 1050.5, 377.9)">W</text><text xml:space="preserve" font-family="Exo2.0-Black,Exo 2.0" font-weight="bold" font-size="118.0" fill="#FF9900" transform="matrix(1.00, 0.00, -0.00, -1.00, 1168.3, 377.9)">O</text><text xml:space="preserve" font-family="Exo2.0-Black,Exo 2.0" font-weight="bold" font-size="118.0" fill="#FF9900" transform="matrix(1.00, 0.00, -0.00, -1.00, 1251.7, 377.9)">R</text><text xml:space="preserve" font-family="Exo2.0-Black,Exo 2.0" font-weight="bold" font-size="118.0" fill="#FF9900" transform="matrix(1.00, 0.00, -0.00, -1.00, 1331.5, 377.9)">L</text><text xml:space="preserve" font-family="Exo2.0-Black,Exo 2.0" font-weight="bold" font-size="118.0" fill="#FF9900" transform="matrix(1.00, 0.00, -0.00, -1.00, 1397.2, 377.9)">D</text><text xml:space="preserve" font-family="Exo2.0-Black,Exo 2.0" font-weight="bold" font-size="118.0" fill="#FF9900" transform="matrix(1.00, 0.00, -0.00, -1.00, 1479.9, 377.9)"> </text><text xml:space="preserve" font-family="Exo2.0-Black,Exo 2.0" font-weight="bold" font-size="118.0" fill="#FF9900" transform="matrix(1.00, 0.00, -0.00, -1.00, 1502.0, 377.9)">A</text><text xml:space="preserve" font-family="Exo2.0-Black,Exo 2.0" font-weight="bold" font-size="118.0" fill="#FF9900" transform="matrix(1.00, 0.00, -0.00, -1.00, 1582.6, 377.9)">P</text><text xml:space="preserve" font-family="Exo2.0-Black,Exo 2.0" font-weight="bold" font-size="118.0" fill="#FF9900" transform="matrix(1.00, 0.00, -0.00, -1.00, 1658.8, 377.9)">P</text></g></svg>